<?xml version="1.0" standalone="no"?>
<!DOCTYPE svg PUBLIC "-//W3C//DTD SVG 1.1//EN" "http://www.w3.org/Graphics/SVG/1.1/DTD/svg11.dtd" >
<svg xmlns="http://www.w3.org/2000/svg">
<metadata>
Created by FontForge 20120731 at Thu Mar  9 10:32:42 2017
 By admin
</metadata>
<defs>
<font id="iconfont" horiz-adv-x="1024" >
  <font-face 
    font-family="iconfont"
    font-weight="500"
    font-stretch="normal"
    units-per-em="1024"
    panose-1="2 0 6 3 0 0 0 0 0 0"
    ascent="896"
    descent="-128"
    x-height="792"
    bbox="0 -212 1719 896"
    underline-thickness="0"
    underline-position="0"
    unicode-range="U+0078-E797"
  />
<missing-glyph 
 />
    <glyph glyph-name=".notdef" 
 />
    <glyph glyph-name=".notdef" 
 />
    <glyph glyph-name=".null" horiz-adv-x="0" 
 />
    <glyph glyph-name="nonmarkingreturn" horiz-adv-x="341" 
 />
    <glyph glyph-name="x" unicode="x" horiz-adv-x="1001" 
d="M281 543q-27 -1 -53 -1h-83q-18 0 -36.5 -6t-32.5 -18.5t-23 -32t-9 -45.5v-76h912v41q0 16 -0.5 30t-0.5 18q0 13 -5 29t-17 29.5t-31.5 22.5t-49.5 9h-133v-97h-438v97zM955 310v-52q0 -23 0.5 -52t0.5 -58t-10.5 -47.5t-26 -30t-33 -16t-31.5 -4.5q-14 -1 -29.5 -0.5
t-29.5 0.5h-32l-45 128h-439l-44 -128h-29h-34q-20 0 -45 1q-25 0 -41 9.5t-25.5 23t-13.5 29.5t-4 30v167h911zM163 247q-12 0 -21 -8.5t-9 -21.5t9 -21.5t21 -8.5q13 0 22 8.5t9 21.5t-9 21.5t-22 8.5zM316 123q-8 -26 -14 -48q-5 -19 -10.5 -37t-7.5 -25t-3 -15t1 -14.5
t9.5 -10.5t21.5 -4h37h67h81h80h64h36q23 0 34 12t2 38q-5 13 -9.5 30.5t-9.5 34.5q-5 19 -11 39h-368zM336 498v228q0 11 2.5 23t10 21.5t20.5 15.5t34 6h188q31 0 51.5 -14.5t20.5 -52.5v-227h-327z" />
    <glyph glyph-name="xiangyou" unicode="&#xe601;" horiz-adv-x="1000" 
d="M350 -131l-62 61l387 386l-387 386l62 62l448 -448z" />
    <glyph glyph-name="shezhi1" unicode="&#xe602;" horiz-adv-x="1000" 
d="M884 414l-59 7q-9 32 -26 62l38 46q11 14 9 33t-15 33l-58 58q-16 16 -38 16q-16 0 -28 -10l-46 -37q-30 16 -63 26l-6 58q-2 18 -16.5 30.5t-34.5 12.5h-82q-20 0 -34.5 -12.5t-16.5 -30.5l-6 -58q-33 -10 -63 -26l-46 37q-12 10 -28 10q-22 0 -38 -16l-58 -58
q-13 -14 -15 -33t9 -33l38 -46q-17 -30 -26 -62l-59 -7q-18 -2 -30.5 -16.5t-12.5 -34.5v-82q0 -19 12.5 -34t30.5 -17l59 -6q9 -32 26 -62l-38 -46q-11 -14 -9 -33t15 -33l58 -58q16 -16 38 -16q16 0 28 10l46 37q30 -16 63 -26l6 -59q2 -18 16.5 -30t34.5 -12h82
q20 0 34.5 12t16.5 30l6 59q33 10 63 26l45 -37q13 -10 29 -10q22 0 38 16l58 58q13 14 15 33t-9 33l-38 46q17 30 26 62l59 6q18 2 30.5 17t12.5 34v82q0 20 -12.5 34.5t-30.5 16.5zM886 281q0 -10 -6 -11l-87 -9l-3 -13q-11 -41 -32 -78l-7 -12l54 -68q4 -5 -3 -12
l-58 -58q-4 -4 -9 -4q-2 0 -3 1l-68 55l-12 -7q-36 -22 -77 -33l-14 -3l-9 -87q-1 -6 -11 -6h-82q-10 0 -11 6l-9 87l-14 3q-41 11 -77 33l-12 7l-68 -55q-1 -1 -3 -1q-5 0 -9 4l-58 58q-7 7 -3 12l54 68l-7 12q-21 37 -32 78l-3 13l-87 9q-6 1 -6 11v82q0 11 6 11l87 9
l3 14q11 41 32 78l7 12l-54 67q-4 5 3 12l58 58q4 4 9 4h3l68 -55l12 7q36 22 77 32l14 4l9 86q1 6 11 6h82q10 0 11 -6l9 -86l14 -4q41 -10 77 -32l12 -7l68 55h3q5 0 9 -4l58 -58q7 -7 3 -12l-54 -67l7 -12q21 -37 32 -78l3 -14l87 -9q6 0 6 -11v-82zM500 456
q-55 0 -94.5 -39t-39.5 -94.5t39.5 -95t94.5 -39.5t94.5 39.5t39.5 95t-39.5 94.5t-94.5 39zM500 229q-39 0 -66.5 27.5t-27.5 66t27.5 66t66.5 27.5t66.5 -27.5t27.5 -66t-27.5 -66t-66.5 -27.5z" />
    <glyph glyph-name="tubiao4" unicode="&#xe6e4;" 
d="M817.5 -108q-33.5 0 -57.5 24t-24 58t24 57.5t57.5 23.5t57.5 -23.5t24 -57.5t-24 -58t-57.5 -24zM817.5 18q-18.5 0 -31.5 -13t-13 -31t13 -31t31.5 -13t31 13t12.5 31t-12.5 31t-31 13zM449.5 -108q-33.5 0 -57.5 24t-24 58t24 57.5t57.5 23.5t57.5 -23.5t24 -57.5
t-24 -58t-57.5 -24zM449 18q-18 0 -31 -13t-13 -31t13 -31t31 -13t31 13t13 31t-13 31t-31 13zM893 79h-582q-10 0 -15.5 8.5t-2.5 17.5l54 143l-143 422h-121q-8 0 -13.5 5.5t-5.5 13.5t5.5 13.5t13.5 5.5h135q13 0 17 -13l150 -441q2 -6 0 -13l-47 -124h555q8 0 13.5 -5.5
t5.5 -13t-5.5 -13.5t-13.5 -6zM836 229h-469q-8 0 -13.5 5.5t-5.5 13.5t5.5 13.5t13.5 5.5h456l92 290h-655q-8 0 -13.5 5.5t-5.5 13.5t5.5 13.5t13.5 5.5h681q10 0 15 -8q6 -8 3 -17l-105 -328q-4 -13 -18 -13z" />
    <glyph glyph-name="gengduo" unicode="&#xe65e;" 
d="M236 415q-42 0 -72 -30t-30 -72t30 -72t72 -30t72 30t30 72t-30 72t-72 30zM236 243q-29 0 -50 20.5t-21 49.5t21 50t50 21t49.5 -21t20.5 -50t-20.5 -49.5t-49.5 -20.5zM800 415q-42 0 -72 -30t-30 -72t30 -72t72 -30t72 30t30 72t-30 72t-72 30zM800 243
q-29 0 -50 20.5t-21 49.5t21 50t50 21t49.5 -21t20.5 -50t-20.5 -49.5t-49.5 -20.5zM518 415q-42 0 -72 -30t-30 -72t30 -72t72 -30t72 30t30 72t-30 72t-72 30zM518 243q-29 0 -50 20.5t-21 49.5t21 50t50 21t49.5 -21t20.5 -50t-20.5 -49.5t-49.5 -20.5z" />
    <glyph glyph-name="icon" unicode="&#xe63d;" 
d="M906 -39h-787q-22 0 -38 16t-16 38v465q0 23 16 38.5t38 15.5h161q18 0 34 17t26 37t22.5 36.5t24.5 16.5h233q18 0 35 -16.5t28.5 -36.5t28 -37t33.5 -17h161q22 0 38 -15.5t16 -38.5v-465q0 -22 -16 -38t-38 -16v0zM513 480q-89 0 -152 -62.5t-63 -151.5t63 -152
t151.5 -63t151.5 63t63 152t-63 151.5t-151 62.5v0zM772 480q-11 0 -19 -7.5t-8 -19t8 -19t19 -7.5t19 7.5t8 19t-8 19t-19 7.5v0zM513 105q-67 0 -114.5 47t-47.5 113.5t47.5 114t114 47.5t114 -47.5t47.5 -114t-47.5 -113.5t-113.5 -47v0zM155 588q0 7 5 12.5t12 5.5h54
q8 0 13 -5.5t5 -12.5v-18h-89v18v0z" />
    <glyph glyph-name="search" unicode="&#xe660;" 
d="M802 429q0 90 -44.5 166.5t-121 121t-165.5 44.5q-138 0 -235 -97t-97 -234.5t97 -234.5t235 -97q126 0 220 85l24 -24l-1 -2q-11 -11 0 -22l120 -121q12 -11 23 0l25 26q12 11 0 22l-120 121q-11 11 -23 0l-1 -2l-24 24q88 96 88 224zM270 229q-83 83 -83 200.5
t83 200.5t200.5 83t200.5 -83t83 -200.5t-83 -200.5t-200.5 -83t-200.5 83z" />
    <glyph glyph-name="share" unicode="&#xe648;" 
d="M750 168v1v0v0v-1zM725 181v0v0v0v0zM789 136q-57 0 -94 -43l-246 155q16 34 16 71q0 39 -17 75l229 130q31 -45 85 -45q43 0 73.5 30.5t30.5 74t-30.5 74t-73.5 30.5t-73.5 -30.5t-30.5 -74.5q0 -8 1 -17l-235 -134q-53 64 -136 64q-73 0 -124.5 -51.5t-51.5 -125
t51.5 -125t124.5 -51.5q41 0 77 17.5t61 48.5l246 -155q-7 -20 -7 -42q0 -51 36 -87.5t87.5 -36.5t87.5 36.5t36 87.5t-36 87.5t-87 36.5zM761.5 642q24.5 0 42 -17t17.5 -41.5t-17.5 -42t-42 -17.5t-41.5 17.5t-17 42t17 41.5t41.5 17zM287 185q-55 0 -94 39t-39 94t39 94
t94 39t93.5 -39t38.5 -94t-38.5 -94t-93.5 -39zM788.5 -66q-32.5 0 -55.5 23t-23 55.5t23 55t55.5 22.5t55.5 -22.5t23 -55t-23 -55.5t-55.5 -23z" />
    <glyph glyph-name="daifukuan1" unicode="&#xe60e;" 
d="M800.5 257q-7.5 0 -13.5 -5.5t-6 -13.5v0v0v0v-97q0 -15 -11 -26.5t-27 -11.5h-363v0h-167q-16 0 -27 11.5t-11 26.5v491q0 15 11 26.5t27 11.5h530q16 0 27 -11.5t11 -26.5v-102v0q0 -8 5.5 -13.5t13.5 -5.5t13.5 5.5t5.5 13.5v0v105q0 30 -21 51.5t-51 21.5h-538
q-30 0 -51 -21.5t-21 -51.5v-497q0 -30 21 -51.5t51 -21.5h538q30 0 51 21.5t21 51.5v100q0 8 -5.5 13.5t-13 5.5zM814 484h-277q-28 0 -48.5 -19t-22.5 -46q-1 -2 -1 -4v-60q0 -30 21 -51t51 -21h277q30 0 51 21t21 51v51v0v5q0 30 -21 51.5t-51 21.5zM848 359
q0 -16 -11 -27t-27 -11h-243v0h-26q-16 0 -27 11t-11 27v49q0 15 11 26.5t27 11.5h269q16 0 27 -11.5t11 -26.5v-49zM788.5 407q-9.5 0 -16.5 -7t-7 -16.5t7 -16.5t16.5 -7t16.5 7t7 16.5t-7 16.5t-16.5 7z" />
    <glyph glyph-name="jia" unicode="&#xe695;" 
d="M512 747q-91 0 -174 -35t-143 -95t-95 -143t-35 -174t35 -174t95 -143t143 -95t174 -35t174 35t143 95t95 143t35 174t-35 174t-95 143t-143 95t-174 35zM512 -88q-105 0 -194.5 52t-141.5 141.5t-52 194.5t52 194.5t141.5 141.5t194.5 52t194.5 -52t141.5 -141.5
t52 -194.5t-52 -194.5t-141.5 -141.5t-194.5 -52zM666 196l119 87l1 1q10 8 10 21q0 7 -4 14l-1 1v1q-9 10 -21 10q-8 0 -15 -5l-128 -94l-60 57v1q-1 0 -2 1q-4 2 -7 3q-20 47 -70 66q3 3 9 11q3 3 4 8h260q11 0 18.5 7.5t7.5 18.5v0q0 11 -7.5 18t-18.5 7h-480
q-11 0 -18.5 -7t-7.5 -18v0q0 -11 7.5 -18.5t18.5 -7.5h153q-67 -64 -182 -96q-19 -5 -19 -25q0 -5 1 -7l1 -2v0q6 -17 23 -17q2 0 6 1h2v0q109 32 178 85q2 -1 7 -2q20 -4 34 -13q-37 -44 -103.5 -79t-128.5 -51q-20 -5 -20 -25q0 -3 1 -5v0v-1q5 -20 24 -20q4 0 7 1
q75 19 141 54.5t109 79.5q1 -5 1 -11v-46q-4 -2 -7 -5q-32 -32 -98 -64t-158 -51q-8 -2 -14 -9t-6 -16q0 -3 1 -5v-1q1 -9 8 -15t17 -6q3 0 6 1q159 33 251 103v-31q0 -14 -6 -24.5t-12 -14.5t-18 -10q-8 -5 -12.5 -7.5t-9 -8.5t-4.5 -14v-1q0 -11 7 -18.5t18 -7.5q3 0 6 1
q38 9 61 37.5t23 67.5l-1 115l188 -178q7 -7 18 -7h1q10 1 17 8t7 17q0 12 -7 19zM786 538.5q-22 21.5 -53 21.5h-186v19q0 11 -7.5 18.5t-17.5 7.5h-2q-11 0 -18 -7.5t-7 -18.5v-19h-187q-30 0 -51.5 -21.5t-21.5 -51.5v-14q0 -11 7.5 -18.5t17.5 -7.5h2q10 0 17.5 7.5
t7.5 18.5v14q0 10 6 15.5t15 5.5h425q9 0 15.5 -5.5t6.5 -15.5v-14q0 -11 7.5 -18.5t18.5 -7.5h1q10 0 18 7.5t8 18.5v14q0 30 -22 51.5z" />
    <glyph glyph-name="yanshichuli" unicode="&#xe609;" 
d="M512 812q-104 0 -199 -40.5t-163.5 -109t-109 -163.5t-40.5 -199t40.5 -199t109 -163.5t163.5 -109t199 -40.5t199 40.5t163.5 109t109 163.5t40.5 199t-40.5 199t-109 163.5t-163.5 109t-199 40.5zM512 -157q-93 0 -177.5 36t-146 97.5t-97.5 146t-36 177.5t36 177.5
t97.5 146t146 97.5t177.5 36t177.5 -36t146 -97.5t97.5 -146t36 -177.5t-36 -177.5t-97.5 -146t-146 -97.5t-177.5 -36zM543 239v471h-54v-525v0v-1h420v55h-366z" />
    <glyph glyph-name="10" unicode="&#xe60d;" 
d="M185.5 183q-48.5 0 -83 34.5t-34.5 83.5t34.5 83.5t83 34.5t83 -34.5t34.5 -83.5t-34.5 -83.5t-83 -34.5zM186 381q-33 0 -56.5 -23.5t-23.5 -56.5t23.5 -56.5t56.5 -23.5t56 23.5t23 56.5t-23 56.5t-56 23.5zM509.5 183q-48.5 0 -83 34.5t-34.5 83.5t34.5 83.5t83 34.5
t83 -34.5t34.5 -83.5t-34.5 -83.5t-83 -34.5zM509 381q-33 0 -56 -23.5t-23 -56.5t23 -56.5t56 -23.5t56.5 23.5t23.5 56.5t-23.5 56.5t-56.5 23.5zM833 183q-49 0 -83.5 34.5t-34.5 83.5t34.5 83.5t83.5 34.5t83.5 -34.5t34.5 -83.5t-34.5 -83.5t-83.5 -34.5zM833 381
q-33 0 -56.5 -23.5t-23.5 -56.5t23.5 -56.5t56.5 -23.5t56.5 23.5t23.5 56.5t-23.5 56.5t-56.5 23.5z" />
    <glyph glyph-name="dingdan" unicode="&#xe607;" 
d="M792 637h-84v56h-75q-19 25 -51 40.5t-70 15.5t-70 -15.5t-51 -40.5h-75v-56h-84q-46 0 -79 -33t-33 -79v-560q0 -47 33 -79.5t79 -32.5h560q46 0 79 32.5t33 79.5v560q0 46 -33 79t-79 33zM372 637h62q0 23 23 39.5t55 16.5t55 -16.5t23 -39.5h62v-112h-280v112z
M848 -35q0 -24 -16.5 -40t-39.5 -16h-560q-23 0 -39.5 16t-16.5 40v560q0 23 16.5 39.5t39.5 16.5h84v-112h392v112h84q23 0 39.5 -16.5t16.5 -39.5v-560zM708 77h-392q-12 0 -20 -8.5t-8 -20t8 -19.5t20 -8h392q12 0 20 8t8 19.5t-8 20t-20 8.5zM708 357h-392
q-12 0 -20 -8.5t-8 -20t8 -19.5t20 -8h392q12 0 20 8t8 19.5t-8 20t-20 8.5zM708 217h-392q-12 0 -20 -8.5t-8 -20t8 -19.5t20 -8h392q12 0 20 8t8 19.5t-8 20t-20 8.5z" />
    <glyph glyph-name="xiaoxi" unicode="&#xe649;" 
d="M512 -84h-85l-235 -128v235q-90 63 -141 150.5t-51 190.5q0 91 40.5 174t109 143t163.5 95.5t199 35.5t199 -35.5t163.5 -95.5t109 -143t40.5 -174t-40.5 -174t-109 -143t-163.5 -95.5t-199 -35.5v0zM512 748q-122 0 -225 -51.5t-163 -140t-60 -192.5q0 -96 52 -181.5
t140 -138.5v-142l171 78h85q122 0 225 51.5t163 140t60 192.5t-60 192.5t-163 140t-225 51.5v0zM768 300q-27 0 -45.5 19t-18.5 45.5t18.5 45t45.5 18.5t45.5 -18.5t18.5 -45t-18.5 -45.5t-45.5 -19v0zM512 300q-27 0 -45.5 19t-18.5 45.5t18.5 45t45.5 18.5t45.5 -18.5
t18.5 -45t-18.5 -45.5t-45.5 -19v0zM256 300q-27 0 -45.5 19t-18.5 45.5t18.5 45t45.5 18.5t45.5 -18.5t18.5 -45.5t-18.5 -45.5t-45.5 -18.5v0z" />
    <glyph glyph-name="quxiao" unicode="&#xe636;" 
d="M512 748q-91 0 -174 -35.5t-143 -95.5t-95.5 -143t-35.5 -174t35.5 -174t95.5 -142.5t143 -95t174 -35.5t173.5 35.5t142.5 95t95.5 142.5t35.5 174t-35.5 174t-95.5 143t-142.5 95.5t-173.5 35.5zM673 204q13 -13 7 -20l-26 -25q-6 -7 -19 6l-123 123l-124 -123
q-12 -13 -19 -6l-25 25q-7 7 6 20l123 123l-123 123q-13 13 -6 19l25 26q7 6 19 -7l124 -123l123 123q13 13 19 7l26 -26q6 -6 -7 -19l-123 -123z" />
    <glyph glyph-name="shengxianshuiguoline" unicode="&#xe714;" horiz-adv-x="1420" 
d="M1719 374v0v-31v0v31zM940 355q-28 40 -68 70.5t-83 46.5t-79.5 24t-72.5 11q-10 12 -42.5 39.5t-60.5 48.5l-27 22q-25 19 -40 19q-7 0 -11.5 -5t-4.5 -9v-5v-137q-53 -28 -89 -54t-49.5 -41.5t-26 -30t-22.5 -20.5q-7 -5 -15 -5q-14 0 -29 12t-40.5 38.5t-40.5 40.5
q-36 31 -56 31q-22 0 -19 -31q3 -28 39 -106q5 -16 -4 -35q-32 -71 -35 -98q-3 -31 19 -31q20 0 56 31q15 13 40.5 39.5t40.5 38.5t29 12q8 0 15 -4q10 -7 22.5 -21.5t26 -30t49.5 -41.5t89 -54v-136q0 -20 16 -20q15 0 40 20q107 83 130 109q36 3 72.5 11t79.5 24.5
t83 46.5t68 70q20 29 20 55v0q0 27 -20 55zM159 243q-26 -26 -41 -39q-12 -11 -22 -17q7 27 31 80v0h1q12 29 4 56v2l-1 2q-27 58 -35 87q10 -7 22 -17q15 -13 41 -40q17 -17 26 -25.5t22.5 -18.5t26.5 -13q-18 -4 -34 -17.5t-41 -39.5zM929 300q0 -16 -14 -37
q-48 -69 -137 -106q-66 -27 -143 -33l-13 -1l-8 -9q-21 -25 -126 -106q-3 -3 -7 -5v117v19l-16 9q-67 35 -107 68q-21 18 -44 44q-19 23 -33 32q-8 6 -17 8q9 3 17 8q14 9 33 32q23 27 44 45q40 32 107 68l16 9v18v117q4 -2 7 -4q105 -82 126 -106l8 -10l13 -1
q28 -2 58.5 -8t72.5 -20t81.5 -42.5t67.5 -68.5v0v0q14 -20 14 -37v0zM800 359q-24 0 -41 -17t-17 -41.5t17 -42t41 -17.5t41 17.5t17 42t-17 41.5t-41 17zM800 272q-11 0 -19 8.5t-8 20t8 20t19 8.5t19 -8.5t8 -20t-8 -20t-19 -8.5zM1404 292z" />
    <glyph glyph-name="icon3" unicode="&#xe634;" 
d="M514 812l-413 -134l2 -520v-6q20 -89 97 -166q61 -61 274 -176q19 -10 22 -11l15 -9l19 10q37 18 80.5 41.5t114.5 68t103 76.5q35 36 59.5 79t29.5 59.5t7 27.5l3 526zM861 161q-17 -69 -78 -130q-63 -63 -271 -169l-8 4q-205 110 -259 165q-61 61 -78 130l-2 471
l349 113l349 -113zM326 79v0h57v22h288v-22h56v156h-401v-156zM383 196h288v-57h-288v57zM521 549l12 -25h-127l25 50l-59 6q-35 -85 -104 -154l10 -34l6 -25q12 13 23.5 25t20.5 23v-161h55v17h378v40h-178v35h155v34h-155v35h155v36h-155v35h169v38h-156q-6 14 -14 29.5
t-17 28.5l-57 -8zM529 311h-146v35h146v-35zM529 380h-146v35h146v-35zM529 451h-146v35h146v-35z" />
    <glyph glyph-name="jinlingyingcaiwangtubiao14" unicode="&#xe797;" 
d="M535 662q-11 5 -20 -2l-249 -210h-199q-8 0 -13.5 -5.5t-5.5 -13.5v-329q0 -8 5.5 -14t13.5 -6h199l249 -209q5 -5 12 -5q4 0 8 2q11 5 11 17v758q0 12 -11 17zM508 -71l-223 187q-6 6 -15 4l-0.5 0.5l-0.5 0.5h-182v290h186l1 0.5l1 0.5q3 0 4 0.5t4 2.5l1 0.5l1 0.5
l223 188v-675v0zM678 491q-7 5 -14.5 4.5t-13 -6.5t-4.5 -14t7 -13q43 -37 67 -88t24 -108q0 -55 -22.5 -105t-63.5 -86q-6 -5 -6.5 -13t5.5 -14q5 -7 14 -7q7 0 13 5q47 42 72.5 99.5t25.5 120.5q0 65 -27.5 124t-76.5 101zM785 579q-7 4 -14.5 2t-11.5 -8.5t-2 -14.5
t9 -12q74 -43 117 -118.5t43 -161.5q0 -85 -43 -160t-116 -119q-7 -4 -9 -12t2 -15q6 -9 17 -9q5 0 10 3q82 49 129.5 132.5t47.5 179.5t-48 180t-131 133z" />
    <glyph glyph-name="bianji" unicode="&#xe603;" 
d="M358 341q-1 -1 -1 -2l-41 -151q-4 -14 6 -24q8 -8 18 -8q4 0 7 1l150 41v0v0q3 0 5 2l400 400q18 18 18 45q0 32 -23 55l-38 38q-23 23 -54 23q-28 0 -46 -18l-400 -400l-0.5 -0.5t-0.5 -1.5zM863 639l-40 -40l-64 66l39 39q5 4 12.5 3.5t12.5 -5.5l38 -38q6 -6 6 -14
q0 -7 -4 -11zM429 335l289 289l64 -66l-288 -288zM377 218l21 77l55 -56zM888 480q-11 0 -19 -8t-8 -19v-373q0 -15 -10.5 -25.5t-25.5 -10.5h-631q-14 0 -24.5 10.5t-10.5 25.5v608q0 15 10.5 25.5t24.5 10.5h407q11 0 19 8t8 19.5t-8 19.5t-19 8h-411q-36 0 -61 -25.5
t-25 -60.5v-618q0 -35 25 -60.5t61 -25.5h639q36 0 61.5 25.5t25.5 60.5v378q0 11 -8 19t-20 8v0z" />
    <glyph glyph-name="camera" unicode="&#xe641;" 
d="M513 448q-76 0 -130 -54t-54 -130t54 -130t130 -54t130 54t54 130t-54 130t-130 54zM512.5 133q-54.5 0 -93 38.5t-38.5 93t38.5 93t93 38.5t93 -38.5t38.5 -93t-38.5 -93t-93 -38.5zM854 527h-104q-11 0 -31.5 26.5t-41.5 52.5t-33 26h-263q-12 0 -33 -26t-41.5 -52.5
t-31.5 -26.5h-104q-32 0 -55.5 -23t-23.5 -56v-420q0 -33 23.5 -56t55.5 -23h683q33 0 56 23t23 56v420q0 33 -23 56t-56 23zM881 54q0 -22 -15.5 -37.5t-37.5 -15.5h-631q-21 0 -36.5 15.5t-15.5 37.5v368q0 22 15.5 37t36.5 15h105q10 0 30.5 26.5t41.5 53t33 26.5h210
q11 0 32.5 -26.5t41.5 -53t30 -26.5h107q22 0 37.5 -15t15.5 -37v-368z" />
    <glyph glyph-name="icon052" unicode="&#xe63e;" 
d="M924.5 287q-7.5 0 -13 5.5t-5.5 12.5q0 107 -52.5 198t-143.5 144t-198 53t-198 -53t-143.5 -144t-52.5 -198q0 -7 -5.5 -12.5t-13 -5.5t-13 5.5t-5.5 12.5q0 117 58 216.5t157 157t216 57.5t216 -57.5t157 -157t58 -216.5q0 -7 -5.5 -12.5t-13 -5.5zM212 29h-53
q-32 0 -55 22.5t-23 55.5v187q0 33 23 56t55 23h53q32 0 55 -23t23 -56v-187q0 -33 -23 -55.5t-55 -22.5zM159 336q-17 0 -29 -12t-12 -30v-187q0 -18 12 -30t29 -12h53q17 0 29.5 12t12.5 30v187q0 18 -12.5 30t-29.5 12h-53zM865 29h-53q-32 0 -55 22.5t-23 55.5v187
q0 33 23 56t55 23h53q32 0 55 -23t23 -56v-187q0 -33 -23 -55.5t-55 -22.5zM812 336q-17 0 -29.5 -12t-12.5 -30v-187q0 -18 12.5 -30t29.5 -12h53q17 0 29 12t12 30v187q0 18 -12 30t-29 12h-53zM615 -103q-9 0 -15 8q-4 6 -2.5 13.5t8.5 11.5l201 132q6 4 13.5 2.5
t11.5 -8t2.5 -13.5t-7.5 -11l-202 -133q-4 -2 -10 -2zM570 -160h-90q-26 0 -44.5 18.5t-18.5 44.5v6q0 26 18.5 44.5t44.5 18.5h90q27 0 45.5 -18.5t18.5 -44.5v-6q0 -26 -18.5 -44.5t-45.5 -18.5zM480 -64q-11 0 -18.5 -8t-7.5 -19v-6q0 -11 7.5 -19t18.5 -8h90
q12 0 19.5 8t7.5 19v6q0 11 -7.5 19t-19.5 8h-90z" />
    <glyph glyph-name="gouwuche" unicode="&#xe616;" 
d="M708 316v68q0 18 -13 31t-32 13h-269q-5 0 -8.5 -3t-3.5 -8t3.5 -8t8.5 -3h269q9 0 15.5 -6.5t6.5 -15.5v-68q0 -16 -3 -20t-19 -7l-277 -39l-71 248q-3 9 -11 9h-56q-5 0 -8.5 -3.5t-3.5 -8t3.5 -8t8.5 -3.5h47q58 -203 79 -275q6 -20 17 -29t35 -9h271q4 0 7.5 3.5
t3.5 8t-3.5 8t-7.5 3.5h-271q-16 0 -21.5 4t-8.5 17q-2 6 -4 13l274 39q25 4 33.5 15t8.5 34zM405 127q-9 0 -16 -7t-7 -16t7 -15.5t16 -6.5t15.5 6.5t6.5 15.5t-6.5 16t-15.5 7zM651.5 127q-9.5 0 -16 -7t-6.5 -16t6.5 -15.5t16 -6.5t16 6.5t6.5 15.5t-6.5 16t-16 7z
M512 747q-91 0 -173.5 -35.5t-142.5 -95.5t-95.5 -142.5t-35.5 -173.5t35.5 -173.5t95.5 -142.5t142.5 -95.5t173.5 -35.5t173.5 35.5t142.5 95.5t95.5 142.5t35.5 173.5t-35.5 173.5t-95.5 142.5t-142.5 95.5t-173.5 35.5zM512 -127q-116 0 -214.5 57t-155.5 155.5
t-57 214.5t57 214.5t155.5 155.5t214.5 57t214.5 -57t155.5 -155.5t57 -214.5t-57 -214.5t-155.5 -155.5t-214.5 -57z" />
    <glyph glyph-name="naozhong3" unicode="&#xe66c;" 
d="M643 328l-119 65v213q0 23 -17 23t-17 -23v-222q0 -9 7 -16.5t12 -10.5l115 -62q18 -10 27.5 6.5t-8.5 26.5zM512 829q-91 0 -174.5 -35.5t-143.5 -95t-96 -142t-36 -172.5t36 -172.5t96 -142t143.5 -95t174.5 -35.5t174.5 35.5t143.5 95t96 142t36 172.5t-36 172.5
t-96 142t-143.5 95t-174.5 35.5zM512 -26q-82 0 -158.5 33t-132.5 88.5t-90 131.5t-34 157t34 157t90 131.5t132.5 88.5t158.5 33t158.5 -33t132.5 -88.5t90 -131.5t34 -157t-34 -157t-90 -131.5t-132.5 -88.5t-158.5 -33z" />
    <glyph glyph-name="shezhi" unicode="&#xe635;" 
d="M931 405l-69 -40q6 -35 6 -65t-6 -65l69 -41q21 -12 27.5 -36t-5.5 -45l-59 -104q-13 -21 -36.5 -27.5t-44.5 5.5l-71 41q-52 -45 -111 -66v-51q0 -24 -17.5 -41.5t-41.5 -17.5h-119q-24 0 -41.5 17.5t-17.5 41.5v51q-59 21 -111 66l-70 -41q-22 -12 -45.5 -5.5
t-35.5 27.5l-60 104q-12 21 -5.5 45t27.5 36l70 41q-7 35 -7 65t7 65l-70 40q-21 13 -27.5 37t5.5 45l60 104q12 21 35.5 27.5t45.5 -6.5l70 -40q52 44 111 65v51q0 25 17.5 42.5t41.5 17.5h119q24 0 41.5 -17.5t17.5 -42.5v-51q59 -21 111 -65l71 40q21 13 44.5 6.5
t36.5 -27.5l59 -104q12 -21 5.5 -45t-27.5 -37zM887 483l-30 52q-6 10 -18 13.5t-22 -2.5l-83 -48q-66 75 -162 95v65q0 13 -8.5 21.5t-21.5 8.5h-59q-12 0 -21 -8.5t-9 -21.5v-65q-96 -20 -162 -95l-82 48q-11 6 -23 2.5t-18 -13.5l-29 -52q-7 -11 -3.5 -23t13.5 -18
l83 -48q-16 -47 -16 -94t16 -95l-83 -48q-10 -6 -13.5 -18t3.5 -22l29 -52q6 -11 18 -14t23 3l82 48q66 -75 162 -95v-66q0 -12 9 -21t21 -9h59q13 0 21.5 9t8.5 21v66q96 20 162 95l83 -48q10 -6 22 -3t18 14l30 52q6 10 2.5 22t-13.5 18l-83 48q16 48 16 95t-16 94l83 48
q10 6 13.5 18t-2.5 23zM512.5 150q-61.5 0 -105 44t-43.5 106t43.5 105.5t105 43.5t105 -43.5t43.5 -105.5t-43.5 -106t-105 -44zM512.5 389q-36.5 0 -62.5 -26t-26 -63t26 -63.5t62.5 -26.5t62.5 26.5t26 63.5t-26 63t-62.5 26z" />
    <glyph glyph-name="guanbi" unicode="&#xe61d;" 
d="M844 13l-46 -45l-286 287v0v0l-287 -287l-45 45l287 287l-287 287l45 45l287 -287v0v0l286 287l46 -45l-287 -287z" />
    <glyph glyph-name="daishouhuo" unicode="&#xe656;" 
d="M757.5 -88q-46.5 0 -79.5 33t-33 80v13h-194q-4 -2 -8 -2h-62v0q-5 -43 -37 -71.5t-75 -28.5t-75 28.5t-37 71.5h-61q-8 0 -13.5 5t-5.5 13v290q0 5 3 10l99 163q36 56 104 56h141q3 51 40.5 87t88.5 36h277q53 0 91 -38t38 -91v-428q0 -39 -26 -68t-64 -33v-13
q0 -47 -32.5 -80t-79 -33zM757 100q-31 0 -53 -22t-22 -53t22 -53.5t53 -22.5t53 22.5t22 53.5t-22 53t-53 22zM269 124q-31 0 -53 -22.5t-22 -53.5t22 -53t53 -22t53 22t22 53t-22 53.5t-53 22.5zM269 161q40 0 70.5 -25t39.5 -63h2h43v462h-141q-48 0 -72 -38l-97 -158
v-266h45q9 38 39.5 63t70.5 25zM462 75h195q14 28 41 45t59 17t59 -17t42 -45q26 0 45 19t19 45v428q0 38 -27 64.5t-65 26.5h-277q-37 0 -64 -26.5t-27 -64.5v-492v0zM310 321h-119q-8 0 -13.5 5.5t-5.5 13t5.5 13t13.5 5.5h100v101q0 7 5.5 12.5t13.5 5.5t13 -5.5t5 -12.5
v-119q0 -8 -5 -13.5t-13 -5.5z" />
    <glyph glyph-name="key" unicode="&#xe633;" 
d="M770 53q0 -107 -76 -183.5t-184 -76.5t-184 76.5t-76 183.5q0 97 62.5 169.5t156.5 87.5v468q0 12 8 20t19.5 8t19.5 -8t8 -20v-55h136q12 0 20 -8t8 -19t-8 -19t-20 -8h-136v-82h136q12 0 20 -8t8 -19.5t-8 -19.5t-20 -8h-136v-220q103 -5 174.5 -80t71.5 -179zM305 53
q0 -85 60 -145t145 -60t145 60t60 145t-60 145t-145 60t-145 -60t-60 -145z" />
    <glyph glyph-name="clock" unicode="&#xe624;" 
d="M836 -64q66 68 101.5 155.5t35.5 182.5q0 91 -32 175t-93 151l35 35l33 -33q8 -8 18.5 -8t18 7.5t7.5 18.5t-8 18l-102 103q-7 7 -18 7t-18.5 -7.5t-7.5 -18t8 -18.5l33 -33l-35 -35q-67 61 -151 93t-175 32t-174.5 -32t-150.5 -93l-35 35l33 33q7 8 7 18.5t-7.5 18
t-18 7.5t-17.5 -7l-103 -103q-7 -7 -7 -18t7.5 -18.5t18 -7.5t18.5 8l33 33l35 -35q-61 -67 -93 -151t-32 -175q0 -95 35.5 -182.5t101.5 -155.5l-104 -104q-7 -8 -7 -18.5t7.5 -18t18 -7.5t17.5 8l106 105q135 -113 311.5 -113t311.5 113l106 -105q7 -8 17.5 -8t18 7.5
t7.5 18t-7 18.5zM51 274.5q0 88.5 34.5 169t93 139t139 93t169 34.5t169 -34.5t139 -93t93 -139t34.5 -169t-34.5 -169t-93 -139t-139 -93t-169 -34.5t-169 34.5t-139 93t-93 139t-34.5 169zM775 441q-6 9 -16 11.5t-19 -2.5l-252 -145l-197 137q-8 6 -18.5 4.5t-16.5 -10.5
t-4.5 -19.5t10.5 -16.5l210 -147v0q1 0 1 -1h1l1 -1v0h1.5h0.5l1 -1h0.5h1.5v-0.5t0.5 -0.5h0.5h1h1h0.5h0.5h0.5h0.5h1v0v0v0h3v0h3v0q2 1 3 1v0q2 1 3 1v0.5v0.5h0.5h0.5l266 154q9 5 12 15.5t-2 19.5v0z" />
    <glyph glyph-name="wodedingdan06" unicode="&#xe620;" 
d="M512 812q-104 0 -199 -40.5t-163.5 -109t-109 -163.5t-40.5 -199t40.5 -199t109 -163.5t163.5 -109t199 -40.5t199 40.5t163.5 109t109 163.5t40.5 199t-40.5 199t-109 163.5t-163.5 109t-199 40.5v0v0zM512 -148q-91 0 -174 35.5t-143 95.5t-95.5 143t-35.5 174
t35.5 174t95.5 143t143 95.5t174 35.5t174 -35.5t143 -95.5t95.5 -143t35.5 -174t-35.5 -174t-95.5 -143t-143 -95.5t-174 -35.5v0v0zM711 174q14 0 24 -8t10 -20q0 -10 -10.5 -18t-23.5 -8h-170v-96q0 -11 -10 -18.5t-26 -7.5q-15 0 -25 7.5t-10 18.5v96h-170q-14 0 -24 8
t-10 20q0 11 10 18.5t24 7.5h170v83h-170q-14 0 -24 7.5t-10 20.5q0 10 10 17.5t24 7.5h144l-148 219q-8 9 -3 19.5t19 16.5q12 4 25.5 1t20.5 -12l149 -220l148 221q7 9 21 12.5t26 -2.5q13 -5 17.5 -15.5t-2.5 -19.5v1l-148 -221h142q14 0 24 -7.5t10 -19t-10 -19
t-24 -7.5h-170v-83h170v0v0z" />
    <glyph glyph-name="daipingjia" unicode="&#xe701;" 
d="M533 64l-54 2h-1q-93 10 -166 62q-80 55 -109 142q-16 47 -19.5 110t1.5 113q1 46 1 68q0 20 15.5 35t35.5 15q56 -2 114 -28q15 40 43 72q64 72 115 72q33 0 71 -29q28 -21 50 -49q24 -32 37 -69q69 29 123 31h2q20 0 34 -15q15 -15 15 -35q0 -41 -1 -121q-1 -18 -1 -27
v-19q-1 -77 -13 -114q-32 -93 -112.5 -152.5t-179.5 -63.5h-1zM482 112l51 -2q85 5 153.5 55.5t94.5 129.5q11 30 11 99v20q1 10 1 27q1 80 1 120q0 1 -1 2l-1 1q-51 -1 -131 -37l-26 -12l-6 28q-9 42 -36 77q-19 24 -43 42t-41 18q-30 0 -80 -56q-30 -34 -42 -79l-7 -28
l-26 13q-65 33 -118 34v0q-3 0 -3 -3q0 -23 -2 -70q-3 -48 -0.5 -106.5t16.5 -99.5q24 -69 87.5 -116t147.5 -57zM405 -88q-14 0 -21 12q-65 114 -139 143q-41 16 -88 4q-48 -12 -63 -46q-3 -9 -12 -13t-18 0t-12.5 13t-0.5 18q24 56 95 73q62 15 116 -6q50 -19 96 -69
q36 -39 67 -94q5 -8 2.5 -17.5t-11.5 -14.5q-5 -3 -11 -3zM619 -88q-6 0 -11 3q-9 5 -11.5 14.5t2.5 17.5q31 55 67 94q46 50 96 69q54 21 116 6q71 -17 95 -73q3 -9 -0.5 -18t-12.5 -13t-18 0t-12 13q-15 34 -63 46q-47 12 -88 -4q-74 -29 -139 -143q-7 -12 -21 -12z
M907 26zM512 -127q-10 0 -16.5 7t-6.5 16v191q0 10 6.5 16.5t16.5 6.5t16.5 -6.5t6.5 -16.5v-191q0 -9 -6.5 -16t-16.5 -7z" />
    <glyph glyph-name="daishouhuo1" unicode="&#xe622;" horiz-adv-x="1026" 
d="M517 808q-103 0 -197.5 -40.5t-162.5 -108.5t-108 -162t-40 -197.5t40 -198t108 -162.5t162.5 -108t197.5 -40t197.5 40t162.5 108t108 162.5t40 198t-40 197.5t-108 162t-162.5 108.5t-197.5 40.5zM517 -172q-96 0 -183 37.5t-150.5 100.5t-100.5 150t-37 183t37 183.5
t100.5 150.5t150.5 100t183 37t183 -37t150.5 -100t100.5 -150.5t37 -183.5t-37 -183t-100.5 -150t-150.5 -100.5t-183 -37.5zM825 310h-53h-183h-53q-8 0 -13.5 -5.5t-5.5 -13t5.5 -13t13.5 -5.5h53h183h53q8 0 13.5 5.5t5.5 13t-5.5 13t-13.5 5.5zM517 581v-53v-183v-54
q0 -7 5.5 -12.5t13 -5.5t13 5.5t5.5 12.5v54v183v53q0 8 -5.5 13.5t-13 5.5t-13 -5.5t-5.5 -13.5z" />
    <glyph glyph-name="bofang" unicode="&#xe605;" 
d="M516.5 811.5q-104.5 0.5 -199.5 -39t-164 -107.5t-110 -162.5t-42 -198.5t38.5 -199t107.5 -164t162.5 -110.5t198.5 -42t199 39t164 107.5t110.5 162.5t42.5 198.5t-39 199t-108 164t-162 110.5t-198.5 42zM508.5 -162.5q-94.5 0.5 -179.5 38t-146.5 100t-97.5 148.5
t-35.5 180t38 179.5t100 147t148.5 97t180 35t179.5 -38t147 -100t97.5 -148.5t35 -180t-38.5 -179.5t-99.5 -147t-148 -97t-180.5 -35zM430 57l282 226q8 6 8 15.5t-7 15.5l-279 231q-10 8 -22 2.5t-12 -18.5l-3 -456q0 -13 11.5 -18.5t21.5 2.5z" />
    <glyph glyph-name="huijijiayuanshoucangicon01" unicode="&#xe645;" horiz-adv-x="1025" 
d="M917 400.5q-11 33.5 -47 38.5l-212 32l-93 191q-16 33 -53 33t-53 -33l-93 -191l-212 -32q-35 -5 -46.5 -38.5t13.5 -58.5l155 -155l-36 -216q-6 -35 24 -56q16 -10 34 -10q15 0 29 7l185 96l185 -96q14 -7 29 -7q18 0 34 10q30 21 24 56l-36 216l155 155q25 25 14 58.5z
M690 205l41 -249l-219 113l-219 -113l41 249l-179 179l248 36l109 224l109 -224l248 -36z" />
    <glyph glyph-name="duigou" unicode="&#xe60b;" horiz-adv-x="1025" 
d="M461 26q-20 0 -34 15l-198 197q-14 14 -14 34t14 34t34 14t34 -14l164 -164l418 419q14 14 34 14t34 -14.5t14 -34t-14 -33.5l-452 -452q-14 -15 -34 -15v0zM512 -212q-104 0 -199 40.5t-163.5 109t-109 163.5t-40.5 199t40.5 199t109 163.5t163.5 109t199 40.5
q154 0 282 -85q13 -8 16 -23t-5.5 -27.5t-23.5 -15.5t-27 5q-110 73 -242 73q-89 0 -170.5 -35t-140 -93.5t-93.5 -140t-35 -170.5t35 -170.5t93.5 -140t140 -93.5t170.5 -35t170.5 35t140 93.5t93.5 140t35 170.5q0 23 -2 46q-2 15 7.5 26.5t24.5 13t27 -8t13 -24.5
q3 -26 3 -53q0 -104 -40.5 -199t-109 -163.5t-163.5 -109t-199 -40.5v0zM512 -212z" />
    <glyph glyph-name="iconfonttaobaozhongchoudisiqiqiche" unicode="&#xe614;" 
d="M933 321q11 0 18.5 7.5t7.5 18.5v192q0 50 -36 86t-86 36h-345q-51 0 -87 -36t-36 -86v-11h-122q-51 0 -83 -40l-92 -116q-32 -40 -32 -90v-250h70q3 -48 37 -80.5t82 -32.5t82 32.5t37 80.5h255q3 -48 37 -80.5t81.5 -32.5t82 32.5t36.5 80.5q50 1 84.5 36.5t34.5 85.5
v37q0 11 -7.5 18.5t-18.5 7.5t-18.5 -7.5t-7.5 -18.5v-37q0 -29 -20.5 -49.5t-49.5 -20.5h-6q-14 32 -43.5 52t-65.5 20t-66 -20t-43 -52h-192v455q0 29 21 49.5t50 20.5h345q29 0 49.5 -20.5t20.5 -49.5v-192q0 -11 7.5 -18.5t18.5 -7.5zM229 -29q-28 0 -47.5 19.5
t-19.5 47t19.5 47t47.5 19.5t47.5 -19.5t19.5 -47t-19.5 -47t-47.5 -19.5zM338 84q-14 32 -43.5 52t-65.5 20t-66 -20t-43 -52h-28v198q0 32 20 58l93 116q16 20 42 20h122v-392h-31zM721.5 104q27.5 0 47.5 -19.5t20 -47t-20 -47t-47.5 -19.5t-47 19.5t-19.5 47t19.5 47
t47 19.5zM303.5 462q-10.5 0 -18 -7.5t-7.5 -18.5v-100h-101q-11 0 -18.5 -8t-7.5 -18.5t7.5 -18t18.5 -7.5h153v152q0 11 -8 18.5t-18.5 7.5z" />
    <glyph glyph-name="youhui" unicode="&#xe657;" 
d="M725.5 683q-35.5 0 -60.5 -25t-25 -60.5t25 -60.5t60.5 -25t60.5 25t25 60.5t-25 60.5t-60.5 25zM725.5 555q-17.5 0 -30 12.5t-12.5 30t12.5 30t30 12.5t30 -12.5t12.5 -30t-12.5 -30t-30 -12.5zM811 768h-241q-38 0 -60 -26l-405 -405q-26 -26 -26 -61t26 -61l241 -241
q23 -23 59 -23q34 0 60 26l405 405q26 29 26 60v241q0 35 -25 60t-60 25zM853 442q0 -17 -12 -30l-406 -406q-13 -12 -30 -12t-30 12l-243 241q-10 15 -10 30q0 17 12 30l406 406q9 12 30 12h241q17 0 29.5 -12.5t12.5 -29.5v-241z" />
    <glyph glyph-name="fenlei1" unicode="&#xe610;" 
d="M390 426h-239q-34 0 -58 24t-24 58v239q0 34 24 58t58 24h239q34 0 58 -24t24 -58v-239q0 -34 -24 -58t-58 -24zM151 788q-17 0 -29 -12t-12 -29v-239q0 -17 12 -29t29 -12h239q17 0 29 12t12 29v239q0 17 -12 29t-29 12h-239zM875 426h-239q-34 0 -58 24t-24 58v239
q0 34 24 58t58 24h239q34 0 58 -24t24 -58v-239q0 -34 -24 -58t-58 -24zM636 788q-17 0 -29 -12t-12 -29v-239q0 -17 12 -29t29 -12h239q17 0 29 12t12 29v239q0 17 -12 29t-29 12h-239zM390 -58h-239q-34 0 -58 24t-24 58v239q0 34 24 58t58 24h239q34 0 58 -24t24 -58
v-239q0 -34 -24 -58t-58 -24zM151 304q-17 0 -29 -12t-12 -29v-239q0 -17 12 -29t29 -12h239q17 0 29 12t12 29v239q0 17 -12 29t-29 12h-239zM875 -58h-239q-34 0 -58 24t-24 58v239q0 34 24 58t58 24h239q34 0 58 -24t24 -58v-239q0 -34 -24 -58t-58 -24zM636 304
q-17 0 -29 -12t-12 -29v-239q0 -17 12 -29t29 -12h239q17 0 29 12t12 29v239q0 17 -12 29t-29 12h-239z" />
    <glyph glyph-name="user" unicode="&#xe63c;" 
d="M638 348q55 31 87.5 85.5t32.5 118.5q0 97 -69 166t-166.5 69t-166.5 -69t-69 -166q0 -62 30.5 -115t81.5 -84q-115 -37 -188.5 -135t-73.5 -222v-8v-7h53q0 1 -0.5 6.5t-0.5 8.5q0 87 43.5 161t117.5 117t162 43t162 -43t117.5 -117t43.5 -161q0 -3 -0.5 -8.5t-0.5 -6.5
h52q1 2 1 7v8q0 120 -69.5 216t-179.5 136zM339 552.5q0 75.5 54 129t129.5 53.5t129.5 -53.5t54 -129t-54 -129t-129.5 -53.5t-129.5 53.5t-54 129z" />
    <glyph glyph-name="wenxintishi" unicode="&#xe62e;" 
d="M188 740q-10 9 -24.5 9t-24.5 -9.5t-10 -24t10 -24.5l49 -48q10 -10 24 -10t24 10t10 24t-10 24l-48 49v0zM836 740l-48 -49q-10 -10 -10 -24t10 -24t24 -10t24 10l49 48q10 10 10 24t-10 24t-24.5 10t-24.5 -9v0zM102 469h-68q-14 0 -24 -10t-10 -24t10 -24t24 -10h68
q15 0 24.5 10t9.5 24t-9.5 24t-24.5 10v0zM990 469h-68q-14 0 -24 -10t-10 -24t9.5 -24t24.5 -10h68q14 0 24 10t10 24t-10 24t-24 10v0zM478 862v-68q0 -15 10 -24.5t24 -9.5t24 10t10 24v68q0 14 -10 24t-24 10t-24 -10t-10 -24v0zM273 384q0 99 70 169t169 70t169 -70
t70 -169t-70 -169t-169 -70t-169 70t-70 169v0zM205 384q0 -127 90 -217t217 -90t217 90t90 217t-90 217t-217 90t-217 -90t-90 -217v0zM444 -94q0 -14 10 -24t24 -10h68q14 0 24 10t10 24t-10 24t-24 10h-68q-14 0 -24 -10t-10 -24v0zM376 9q0 -14 10 -24t24 -11h204
q15 0 24.5 10t9.5 24.5t-9.5 24.5t-24.5 10h-204q-15 0 -24.5 -10t-9.5 -24v0z" />
    <glyph glyph-name="home" unicode="&#xe604;" 
d="M873 436l-291 303q-28 29 -68 29t-68 -29l-291 -303q-35 -37 -21 -69q13 -30 50 -30h43v-233q0 -41 26 -71.5t65 -30.5h49h75v54v192v10.5v9.5t0.5 7t2 6.5l4 4t6.5 3t10 0.5h49h49q6 0 10 -0.5t6.5 -3l4 -4t2 -6.5t0.5 -7v-9.5v-10.5v-192v-54h75h49q39 0 65.5 30.5
t26.5 71.5v233h42q37 0 50 30q14 32 -21 69zM844 385h-36h-25h-29v-281q0 -21 -12.5 -38t-31.5 -17h-76v199q0 89 -71 89h-49h-49q-71 0 -71 -89v-199h-76q-19 0 -31.5 17t-12.5 38v281h-29h-24h-37q-1 0 -1.5 1.5l-0.5 1.5q8 14 9 15l291 302q14 15 32 15q19 0 33 -15
l290 -302q2 -1 10 -15q-1 0 -1.5 -1.5t-1.5 -1.5z" />
    <glyph glyph-name="fenlei" unicode="&#xe761;" 
d="M395 831h-254q-32 -1 -54.5 -23.5t-22.5 -54.5v-253q1 -32 23 -54.5t54 -23.5h254q32 0 55 23t23 55v253q0 32 -23 55t-55 23v0zM395 461h-253q-16 0 -27.5 11.5t-11.5 27.5v253q0 16 11.5 27.5t27.5 11.5h253q16 0 27.5 -11.5t11.5 -27.5v-253q0 -16 -11.5 -27.5
t-27.5 -11.5v0zM395 461zM881 831h-254q-31 -1 -53.5 -23.5t-22.5 -54.5v-253q0 -32 22.5 -54.5t53.5 -23.5h254q32 0 55 23t23 55v253q0 32 -23 55t-55 23v0zM881 461h-253q-16 0 -27 11.5t-11 27.5v253q0 16 11 27.5t27 11.5h253q16 0 27.5 -11.5t11.5 -27.5v-253
q0 -16 -11.5 -27.5t-27.5 -11.5v0zM881 461zM395 345l-254 -1q-32 0 -54.5 -22.5t-22.5 -54.5v-253q1 -32 23 -54.5t54 -23.5h254q32 0 55 23t23 55v253q0 32 -23 55t-55 23v0zM395 -25h-253q-16 0 -27.5 11.5t-11.5 27.5v253q0 16 11.5 27.5t27.5 11.5h253q16 0 27.5 -11.5
t11.5 -27.5v-253q0 -16 -11.5 -27.5t-27.5 -11.5v0zM395 -25zM881 345h-254q-31 -1 -53.5 -23.5t-22.5 -54.5v-253q0 -32 22.5 -54.5t53.5 -23.5h254q32 0 55 23t23 55v253q0 32 -23 55t-55 23v0zM881 -25h-253q-16 0 -27 11.5t-11 27.5v253q0 16 11 27.5t27 11.5h253
q16 0 27.5 -11.5t11.5 -27.5v-253q0 -16 -11.5 -27.5t-27.5 -11.5v0zM881 -25z" />
    <glyph glyph-name="zhengyanicon" unicode="&#xe62b;" 
d="M516 728q-79 0 -135 -58t-56 -139.5t56 -139.5t135 -58t135 58t56 139.5t-56 139.5t-135 58v0zM516 399q-53 0 -91 39t-38 93.5t37.5 93.5t90 39t90 -39t37.5 -93q0 -55 -36.5 -94t-89.5 -39v0zM1022 540v2v3l-0.5 0.5t-0.5 1v1.5t-1 1q-68 162 -205.5 254t-299.5 92
q-163 0 -302.5 -92t-207.5 -254l-0.5 -1t-0.5 -1.5t-0.5 -1l-0.5 -0.5v-3v-2q-1 -6 -1 -9t1 -9v-2v-3l0.5 -0.5t0.5 -1t0.5 -1.5l0.5 -1q68 -162 206 -253t301.5 -91t301.5 91t206 252q1 1 1 2v1l0.5 0.5t0.5 1.5v2.5t1 2.5q1 6 1 9t-2 9v0zM513 235q-142 0 -262.5 76
t-183.5 220q63 143 184.5 220.5t263.5 77.5q140 0 260 -77.5t183 -220.5q-62 -143 -183 -219.5t-262 -76.5v0zM513 235z" />
    <glyph glyph-name="huangguan" unicode="&#xe628;" 
d="M140 556.5q0 -15.5 -11 -26.5t-26.5 -11t-27 11t-11.5 26.5t11.5 26.5t27 11t26.5 -11t11 -26.5zM551 673.5q0 -15.5 -11 -26.5t-26.5 -11t-27 11t-11.5 26.5t11.5 27t27 11.5t26.5 -11.5t11 -27zM958 556.5q0 -15.5 -11 -26.5t-26.5 -11t-26.5 11t-11 26.5t11 26.5
t26.5 11t26.5 -11t11 -26.5zM140 508l53 -336h623l67 336l-187 -119l-183 220l-185 -210zM819 91q0 -11 -7.5 -18.5t-18.5 -7.5h-574q-11 0 -18.5 7.5t-7.5 18.5v0q0 10 7.5 18t18.5 8h574q11 0 18.5 -8t7.5 -18v0z" />
    <glyph glyph-name="youhuiquan1" unicode="&#xe66b;" 
d="M958 461l-1 287q0 27 -19.5 47.5t-46.5 21.5l-294 16v0h-0.5h-1.5l-13 1v0q-47 1 -73 -26l-428 -427q-18 -18 -18 -45q0 -26 19 -45l150 -151l-74 -74l-5 43q-1 9 -8.5 15t-16.5 5t-15 -8.5t-5 -16.5l11 -86q0 -10 6.5 -16.5t15.5 -6.5h1v0l86 -10h2q9 0 15 5.5t8 13.5
q1 9 -5 16.5t-15 8.5l-43 5l90 90q13 13 2 28l1 1l-3 3v0v0l-167 166q-6 6 -6 14t6 14l427 427q13 13 41 12l307 -16q10 -1 17 -8.5t7 -16.5l1 -288v0v-1v-2v-1v0q0 -28 -12 -40l-427 -427q-6 -6 -14 -5.5t-14 5.5l-104 105q-7 6 -16 6t-15.5 -6.5t-6.5 -15.5t6 -16
l105 -104q19 -19 46 -19q26 0 45 18l427 427q26 26 25 77zM394.5 270.5q6.5 -6.5 16 -6.5t15.5 6l51 52l47 -47q6 -6 15.5 -6t16 6.5t6.5 15.5t-7 16l-46 46l12 12l53 -54q7 -6 16 -6t15.5 6.5t6.5 15.5t-6 16l-52 51h124q9 0 15.5 6.5t6.5 16t-6.5 16t-15.5 6.5h-113v112
q0 10 -6.5 16.5t-16 6.5t-16 -6.5t-6.5 -16.5v-123l-53 54q-7 6 -16 6t-15.5 -6.5t-6.5 -16t6 -15.5l54 -54l-12 -11l-46 46q-6 7 -15.5 7t-16 -7t-6.5 -16t6 -16l47 -46l-52 -51q-6 -7 -6 -16t6.5 -15.5zM789 549q24 24 24 58t-24 58q-23 23 -57.5 23t-57.5 -23
q-24 -24 -24 -58t24 -57.5t57.5 -24t57.5 23.5zM705 581q-10 11 -10 26t10.5 26t26 11t26 -11t10.5 -26t-11 -26q-10 -10 -25.5 -10t-26.5 10z" />
    <glyph glyph-name="icon1460188752552" unicode="&#xe627;" horiz-adv-x="1028" 
d="M907 761h-786q-50 0 -85.5 -35.5t-35.5 -85.5v-512q0 -50 35.5 -85t85.5 -35h786q50 0 85 35t35 85v512q0 50 -35 85.5t-85 35.5zM907 44h-786q-35 0 -59.5 25t-24.5 59v512q0 35 24.5 59.5t59.5 24.5h786q34 0 59 -24.5t25 -59.5v-132h-376q-50 0 -85.5 -35.5
t-35.5 -85.5v-25q0 -50 35.5 -85.5t85.5 -35.5h376v-113q0 -34 -25 -59t-59 -25zM990 471v-193h-375q-35 0 -59.5 24.5t-24.5 59.5v25q0 34 24.5 59t59.5 25h375zM849 319q22 0 38 16t16 38.5t-16 38.5t-38.5 16t-38.5 -16t-16 -38q0 -21 21 -38t34 -17z" />
    <glyph glyph-name="1" unicode="&#xe615;" 
d="M510 -77q-94 0 -179 36.5t-147 98.5t-98.5 147t-36.5 178.5t36.5 179t98.5 147t147 98.5t179 37t179 -37t147 -98.5t98.5 -147t36.5 -179t-36.5 -178.5t-98.5 -147t-147 -98.5t-179 -36.5zM510 808q-115 0 -212.5 -57t-154.5 -154.5t-57 -212.5t57 -213t154.5 -154.5
t212.5 -56.5t212.5 56.5t154.5 154.5t57 213t-57 212.5t-154.5 154.5t-212.5 57zM510 384zM322 298v170q-7 -12 -24 -33q-7 -7 -9 -10l-33 24q75 94 113 196h48q-12 -31 -26 -64h137q-10 40 -19 64h49q3 -7 8 -24q7 -25 9 -40h184v-30h-191v-48h173v-28h-173v-50h170v-26
h-170v-49h196v-29h-395v-23h-47zM357 123q-47 2 -49 44v62q2 45 49 47h348q47 -2 50 -49v-57q2 -50 -52 -47h-346v0zM681 153q26 0 26 17v52q0 23 -23 23h-301q-26 0 -26 -23v-50q0 -19 26 -19h298v0zM374 551q0 -3 -2 -10q2 5 -3 -2v-36h152v48h-147zM521 475h-152v-50h152
v50zM521 399h-152v-49h152v49z" />
    <glyph glyph-name="liwu1" unicode="&#xe600;" 
d="M858 601h-137q28 36 28 81q0 55 -38.5 93.5t-92.5 38.5q-67 0 -106 -54q-39 54 -106 54q-54 0 -92.5 -38.5t-38.5 -93.5q0 -45 28 -81h-137q-35 0 -60 -25t-25 -60v-105q0 -29 17 -51.5t44 -30.5v-290q0 -34 24 -58.5t59 -24.5h277q5 -2 10 -2t10 2h277q35 0 59 24.5
t24 58.5v290q27 8 44 30.5t17 51.5v105q0 35 -25 60t-60 25zM618 763q33 0 56.5 -23.5t23.5 -57t-23.5 -57t-56.5 -23.5h-81v80v0q0 34 24 57.5t57 23.5zM406 763q33 0 57 -23.5t24 -57.5v-80h-81v0q-33 0 -56.5 23.5t-23.5 57t23.5 57t56.5 23.5zM132 411v105q0 14 10 24.5
t24 10.5h321v-174h-321q-14 0 -24 10t-10 24zM193 39v287h294v-319h-262q-14 0 -23 9.5t-9 22.5zM799 7h-262v319h295v-287q0 -13 -9.5 -22.5t-23.5 -9.5zM892 411q0 -14 -10 -24t-24 -10h-321v174h321q14 0 24 -10.5t10 -24.5v-105z" />
    <glyph glyph-name="shaixuan" unicode="&#xe6fc;" 
d="M848 725q31 51 3 103q-13 24 -35.5 38t-49.5 14h-615q-26 0 -48.5 -14t-35.5 -38q-28 -52 2 -103l3 -3l201 -248q20 -24 20 -55v-337q0 -13 9 -22.5t21 -9.5t21 9.5t9 22.5v337q0 54 -34 95l-200 246q-10 19 0 38q11 19 32 19h615q22 0 32 -19q11 -19 0 -38l-200 -246
q-33 -41 -33 -95v-516q0 -12 8.5 -21.5t21 -9.5t21 9.5t8.5 21.5v516q0 31 20 55l202 248q1 2 2 3zM698 420q0 -13 8.5 -22t21.5 -9h212q12 0 21 9t9 22t-9 22t-21 9h-212q-13 0 -21.5 -9t-8.5 -22zM940 109h-212q-13 0 -21.5 -9t-8.5 -22t8.5 -22t21.5 -9h212q12 0 21 9
t9 22t-9 22t-21 9zM940 280h-212q-13 0 -21.5 -9t-8.5 -22t8.5 -22t21.5 -9h212q12 0 21 9t9 22t-9 22t-21 9z" />
    <glyph glyph-name="wodedingdan" unicode="&#xe629;" 
d="M918 627q-3 6 -9 9l-240 243h-6h-106t-210 0.5l-106 0.5q-56 0 -96 -40.5t-40 -97.5v-733q0 -57 40 -97.5t96 -40.5h542q56 0 96 40.5t40 97.5v617zM866 637h-203v204zM783 -98h-542q-44 0 -75 31.5t-31 75.5v733q0 44 31 75.5t75 31.5q228 -1 392 -1v-226
q0 -7 4.5 -11.5t10.5 -4.5h241v-597q0 -44 -31 -75.5t-75 -31.5zM730 264h-440q-7 0 -11.5 -4t-4.5 -10.5t4.5 -11t11.5 -4.5h440q7 0 11 4.5t4 11t-4 10.5t-11 4zM730 72h-440q-7 0 -11.5 -4.5t-4.5 -11t4.5 -11t11.5 -4.5h440q7 0 11 4.5t4 11t-4 11t-11 4.5z" />
    <glyph glyph-name="guanbi1" unicode="&#xe66d;" 
d="M195 699q104 104 251 125q88 12 173 -9.5t156.5 -75t116 -129t57.5 -163.5q17 -120 -27.5 -230t-137 -183.5t-212.5 -90.5q-158 -23 -294 60q-11 7 -14 19.5t4 24t19.5 14.5t23.5 -4q117 -70 252 -51q102 15 182 78t118 157t23 197q-11 75 -49 140t-99.5 110.5t-134.5 64
t-148 8.5q-103 -15 -182.5 -78t-117.5 -157.5t-23 -196.5q11 -82 56 -151q7 -11 4 -24t-14 -20t-23.5 -4.5t-20.5 13.5q-51 81 -65 177q-13 88 9 173.5t75 156.5q19 26 42 49v0v0v0zM195 699zM557 388l137 136q10 9 10 22.5t-9.5 22.5t-22.5 9t-22 -9l-138 -136l-135 136
q-10 9 -23 9t-22.5 -9t-9.5 -22.5t10 -22.5l135 -136l-137 -134q-9 -10 -9 -23t9.5 -22.5t22.5 -9.5t22 9l137 135l137 -138q10 -9 23 -9t22.5 9.5t9.5 22.5t-10 22l-137 138v0v0v0zM557 388z" />
    <glyph glyph-name="lipin01" unicode="&#xe6b4;" 
d="M914 584h-278q72 43 72 115q0 33 -21.5 52.5t-59.5 19.5q-34 0 -66 -15t-49 -40q-17 26 -49.5 41t-65.5 15q-37 0 -59 -20t-22 -53q0 -72 72 -115h-278q-20 0 -33 -11t-13 -30v-61q0 -20 13.5 -36t32.5 -16h28q-4 0 -4 -13v-369q0 -20 14 -36t32 -16h664q18 0 32 16
t14 36v369q0 13 -4 13h28q19 0 32.5 16t13.5 36v61q0 19 -13 30t-33 11zM627 745q53 0 53 -43q0 -69 -79 -97q-33 -12 -75 -15v84q0 28 32 49.5t69 21.5zM344 702q0 43 53 43q37 0 69 -21.5t32 -49.5v-84q-16 1 -32 3.5t-39.5 10.5t-40.5 19t-29.5 31.5t-12.5 47.5zM92 482
v61q0 13 18 13h388v-98h-318h-70q-7 0 -12.5 8t-5.5 16zM162 48v369q0 13 18 13h318v-406h-318q-7 0 -12.5 8t-5.5 16zM862 417v-369q0 -8 -5.5 -16t-12.5 -8h-318v406h318q18 0 18 -13zM932 482q0 -8 -5.5 -16t-12.5 -8h-70h-318v98h388q18 0 18 -13v-61z" />
    <glyph glyph-name="daipingjia2" unicode="&#xe6c3;" 
d="M912 743l-43 44q-26 25 -64.5 25t-63.5 -25v-1l-81 -95l-376 -359l-1 -1v-12v-1l-55 -187l43 -39l176 62h1h11l357 379l95 78h1q26 27 26 66.5t-26 65.5zM367 308l325 325l67 -68l-323 -327zM314 179l22 68l43 -43zM804.5 748q10.5 0 18.5 -8l43 -43q7 -7 7 -17.5
t-7 -18.5l-55 -55l-79 79l55 55q7 8 17.5 8zM850 481q-13 0 -22.5 -9.5t-9.5 -23.5v-360q0 -29 -19 -48.5t-46 -19.5h-524q-28 0 -54 20q-25 21 -25 48v527q0 27 25.5 52t53.5 25h300q14 0 23.5 9t9.5 22.5t-9.5 23t-23.5 9.5h-300q-59 0 -101 -41q-42 -40 -42 -100v-527
q0 -59 42 -96q41 -36 101 -36h524q59 0 94 36t35 96v360q0 14 -9.5 23.5t-22.5 9.5z" />
    <glyph glyph-name="daipingjia1" unicode="&#xe686;" 
d="M532 159l-42 1q-42 5 -89 24.5t-83 44.5q-69 48 -96 127q-16 44 -19 100t1 105q2 43 2 64t10.5 34.5t29.5 13.5q56 -2 115 -28q17 46 48 79q32 37 53.5 52t45.5 15q5 0 10.5 -2t9.5 -3.5t11.5 -6t10 -6.5t11.5 -9t12 -9q20 -15 45 -47q22 -28 35 -66q72 30 127 32h1
q19 0 31 -12q8 -8 8 -30q0 -40 -1 -115q-1 -14 -1 -25v-19q-1 -78 -13 -113q-30 -88 -103.5 -142t-168.5 -59h-1v0v0zM482 206l49 -2q83 4 149 49t91 119q10 28 11 102v19v25q2 76 2 114q0 1 -1 3q-1 1 -2 1q-49 -2 -126 -36l-25 -11l-6 27q-9 39 -35 73q-18 23 -41 40
t-40 17q-29 0 -77 -54q-28 -32 -40 -75l-7 -26l-25 12q-63 31 -114 33v0q-3 0 -3 -4q0 -20 -1 -66q-4 -45 -1.5 -101t16.5 -95q22 -66 84 -110.5t142 -53.5v0v0zM392 33q-26 44 -62 82.5t-76 54.5q-39 15 -85 4q-15 -4 -33.5 -18t-26.5 -34q-4 -8 -12.5 -11.5t-17.5 0
t-12.5 12t0.5 16.5q23 54 91 70q60 15 112 -5q48 -19 93 -67q34 -36 64 -89q11 -18 -7 -28q-7 -4 -15.5 1t-12.5 12zM603 18q-18 12 -8 30q30 53 65 89q44 48 93 67q52 20 111 5q69 -16 92 -70q3 -8 -0.5 -16.5t-12 -12t-17 0t-12.5 11.5q-8 19 -26.5 32t-35.5 17
q-45 11 -84 -4q-72 -27 -137 -141q-4 -5 -13 -8.5t-15 0.5zM511 -22q-9 0 -15.5 6.5t-6.5 15.5v182q0 8 6.5 13.5t16 5.5t16 -5.5t6.5 -13.5v-182q0 -9 -6.5 -15.5t-16.5 -6.5v0v0zM511 -22z" />
    <glyph glyph-name="yijianfankui" unicode="&#xe623;" 
d="M892 481q-1 8 -7 13.5t-14.5 5.5t-14.5 -5.5t-7 -13.5v0v-373q0 -26 -18 -44t-44 -18h-552q-25 0 -43.5 18t-18.5 44v556q0 26 18.5 44t43.5 18h371v0q8 0 14.5 6.5t6.5 15t-6.5 15t-14.5 6.5v0h-371q-43 0 -74 -31t-31 -74v-556q0 -44 31 -74.5t74 -30.5h552
q43 0 74 30.5t31 74.5v373v0zM338 256v-1q-4 -20 7 -31q7 -7 20 -7q5 0 11 1l117 31l374 374q21 20 21 49t-21 49l-26 26q-20 20 -48.5 20t-49.5 -20l-374 -374zM404 337l54 -54l-73 -18zM430 372l292 293l63 -63l-292 -293zM811 716l26 -25q8 -8 8 -19t-8 -19l-22 -21
l-63 63l22 21q7 8 18 8t19 -8z" />
    <glyph glyph-name="daifukuan" unicode="&#xe6e1;" 
d="M818 246q-9 0 -14.5 -6t-5.5 -14v0v0v0v-103q0 -16 -12 -28t-29 -12h-386v0h-177q-17 0 -29 12t-12 28v521q0 17 12 29t29 12h563q17 0 29 -12t12 -29v-108v0q0 -8 5.5 -14t14 -6t14.5 6t6 14v0v113q0 31 -22.5 53.5t-54.5 22.5h-572q-31 0 -53.5 -22.5t-22.5 -53.5v-530
q0 -31 22.5 -53.5t53.5 -22.5h572q32 0 54.5 22.5t22.5 53.5v107q0 8 -6 14t-14 6v0v0v0v0zM832 487h-294q-30 0 -51.5 -20t-24.5 -49q-1 -1 -1 -3v-64q0 -32 22.5 -54.5t54.5 -22.5h295q31 0 53.5 22.5t22.5 54.5v53v1v5q0 32 -22.5 54.5t-54.5 22.5v0v0v0v0zM869 352
q0 -17 -12 -29.5t-29 -12.5h-258v0h-28q-17 0 -28.5 12.5t-11.5 29.5v53q0 17 11.5 29.5t28.5 12.5h286q17 0 29 -12.5t12 -29.5v-53v0v0v0v0zM781 371.5q0 -14.5 10 -24.5t24 -10t24 10t10 24.5t-10 24.5t-24 10t-24 -10t-10 -24.5z" />
    <glyph glyph-name="kefu" unicode="&#xe60c;" 
d="M460 258q-6 -15 -19 -24.5t-30 -9.5q-22 0 -37.5 15.5t-15.5 38t15.5 38t37.5 15.5q17 0 30 -9.5t19 -24.5l-39 -20l39 -19v0zM709 258q-6 -16 -19.5 -25.5t-30.5 -9.5q-22 0 -37.5 16t-15.5 38t15.5 38t37.5 16q17 0 30.5 -9.5t19.5 -24.5l-39 -20l39 -19v0zM927 262
q-9 -34 -40 -51q-23 -19 -53 -19h-3q-24 -107 -105.5 -172t-194 -65t-194 65t-106.5 172q-23 0 -43 12q-42 16 -53 58q-13 48 21 82q-1 15 0 32q-4 177 99 283q48 50 116 76q5 47 50.5 79.5t106.5 32.5t106.5 -32.5t50.5 -79.5q68 -26 116 -76q103 -106 99 -284q1 -13 0 -26
q41 -35 27 -87v0zM528 818q-46 0 -81 -20.5t-45 -52.5q58 17 125 17h2q67 0 125 -17q-10 32 -45 52.5t-81 20.5v0zM769 627q-87 89 -240 89v-17h-1v17h-1q-153 0 -240 -89q-90 -92 -86 -251v-2.5v-1.5q4 2 9.5 1.5t9.5 -1.5t8 -3t6 -3.5t4 -3.5l2 -2q22 7 42.5 22t32.5 29
t22.5 30t13.5 22t4 10q5 13 18.5 8t8.5 -19q-2 -5 -5.5 -12t-15 -25t-25 -33.5t-36 -32t-47.5 -25.5q-2 -37 -2 -45v-16q0 -128 78 -208.5t202 -80.5q1 0 1 -1q96 1 166 51t98 135q-7 -8 -15 -16q-46 -48 -109 -73q-44 -18 -94 -24q-2 -11 -15 -18.5t-30 -7.5q-19 0 -32.5 9
t-13.5 22t13.5 22t32.5 9q28 0 41 -17q76 8 136 45.5t97 97.5q4 27 4 54v3q0 1 -1 1q-18 24 -46 39.5t-48.5 21.5t-60.5 15q-60 12 -90 24q-31 12 -59.5 31t-46.5 35.5t-34 36t-21.5 27t-7.5 12.5q-8 12 4.5 19.5t19.5 -4.5q2 -5 6.5 -11t19.5 -24t31.5 -33.5t43 -33.5
t54.5 -28q28 -11 86 -23q37 -8 57 -13.5t49 -19.5t49 -34q1 0 2 1q1 23 2 29v2t2.5 7.5t11 13.5t21.5 7v2q4 160 -86 252v0z" />
    <glyph glyph-name="refund" unicode="&#xe68d;" 
d="M859 704v0q-101 47 -206 88t-142 42q-37 -1 -142 -42t-207 -88q-16 -8 -26 -23.5t-10 -33.5q4 -192 59 -331q28 -71 66.5 -133.5t75 -104t73.5 -73t63 -47.5t42 -20h6h5q23 6 61 33.5t84 72.5t94 117.5t80 154.5q55 138 59 331q1 16 -10 33.5t-25 23.5zM796 332v0
q-31 -76 -74.5 -143t-85.5 -108.5t-74 -66.5t-52 -33q-20 8 -51.5 32t-73 64.5t-85.5 108t-75 146.5q-52 131 -56 316q0 12 11 17q115 54 210 90t121 36t120.5 -36t209.5 -89q3 -2 7 -8t4 -10q-4 -185 -56 -316zM536 429l-15 -21q85 -54 148 -99l19 26q-28 18 -69 44
q35 14 72 29l-19 27q-40 -22 -78 -40q-27 16 -58 34zM497 312q37 18 73 32q-2 14 -2 30q-44 -19 -74 -31v100h134v-10h28v173h-191v-253q0 -15 -11 -26l22 -28q10 8 21 13zM494 580h134v-43h-134v43zM494 512h134v-44h-134v44zM480 286q-55 2 -79 39v162h-74v-28h45v-128
q-15 -14 -49 -47l16 -31q30 36 45 51q27 -44 91 -45q106 -2 217 -1q6 17 11 30q-115 -3 -223 -2zM424 543q-34 49 -53 72l-25 -16q20 -26 51 -75z" />
    <glyph glyph-name="gouwuche-copy" unicode="&#xe606;" 
d="M365 256h403q15 0 27.5 9t17.5 23l77 333q6 13 -7 38q-4 9 -15.5 14t-22.5 5h-551l-19 84h-121q-11 0 -18.5 -5.5t-7.5 -14.5t8 -17t18 -8h83l38 -167v0v-12l58 -237q-21 -11 -36 -33.5t-15 -49.5q0 -32 25 -58q-10 -10 -17.5 -27t-7.5 -31q0 -33 24.5 -58t58.5 -25
t58.5 22t24.5 55q0 6 -3 19t-3 19h275q-7 -12 -7 -38q0 -34 25 -58.5t58.5 -24.5t58.5 24.5t25 58.5q0 33 -21.5 55.5t-55.5 27.5h-6h-429v0q-15 0 -27 12t-12 27q13 38 39 38zM787 134q15 0 27 -12t12 -26q0 -32 -39 -32q-14 0 -26 12t-12 26t11.5 23t26.5 9zM365 64
q-15 0 -27 12t-12 26.5t12 26.5t27 12v0v0q14 0 26 -12t12 -27q0 -18 -11.5 -28t-26.5 -10zM768 301h-384l-51 224h486zM845 634l-13 -64h-512l-13 57z" />
    <glyph glyph-name="youhuiquan" unicode="&#xe6e6;" 
d="M309 525h37v-118h-37v118zM309 361h37v-118h-37v118zM981 507v165q0 15 -11 25.5t-26 10.5h-864q-15 0 -26 -10.5t-11 -25.5v-164q40 -13 65.5 -47t25.5 -77t-25.5 -77.5t-65.5 -46.5v-164q0 -15 11 -25.5t26 -10.5h864q15 0 26 10.5t11 25.5v163q-40 13 -65.5 47
t-25.5 77t25.5 77.5t65.5 46.5zM853 383.5q0 -47.5 24.5 -87.5t66.5 -61v-139v0h-598v83h-37v-83h-229v0v139q42 21 66.5 61t24.5 87.5t-24.5 87.5t-66.5 61v140v0h229v-83h37v83h598v0v-140q-42 -21 -66.5 -61t-24.5 -87.5zM714 361q7 0 12.5 5.5t5.5 12.5v1q0 8 -5.5 13
t-12.5 5h-83l92 92q5 5 5 12.5t-5 12.5l-1 1q-5 5 -12.5 5t-12.5 -5l-90 -90l-90 90q-5 5 -12.5 5t-12.5 -5l-1 -1q-5 -5 -5 -12.5t5 -12.5l92 -92h-83q-8 0 -13 -5t-5 -13v-1q0 -7 5 -12.5t13 -5.5h89v-45h-89q-8 0 -13 -5.5t-5 -12.5v-1q0 -7 5 -12.5t13 -5.5h89v-42
q0 -7 5 -12.5t12 -5.5h1q8 0 13 5.5t5 12.5v42h89q7 0 12.5 5.5t5.5 12.5v1q0 7 -5.5 12.5t-12.5 5.5h-89v45h89z" />
    <glyph glyph-name="denglumima" unicode="&#xe611;" 
d="M739 470q22 0 37.5 -15.5t15.5 -37.5v-284q0 -22 -15.5 -37.5t-37.5 -15.5h-451q-22 0 -37.5 15.5t-15.5 37.5v284q0 22 15.5 37.5t37.5 15.5h451zM739 505h-451q-36 0 -62 -26t-26 -62v-284q0 -37 26 -63t62 -26h451q37 0 63 26t26 63v284q0 36 -26 62t-63 26zM655 557
q-8 0 -14 5.5t-6 14.5v50q0 49 -35 83.5t-84 34.5t-84 -34.5t-35 -83.5v0v-50q0 -9 -6 -14.5t-14 -5.5t-14 5.5t-6 14.5v51q1 65 47.5 111t111.5 46t111.5 -46t47.5 -111v0v-51q0 -9 -6 -14.5t-14 -5.5v0z" />
    <glyph glyph-name="dianmingdan" unicode="&#xe608;" 
d="M748 712h-43q-9 0 -17 -7t-8 -16q0 -8 8 -13t17 -5h43q20 0 34.5 -13.5t14.5 -33.5v-502q0 -19 -14.5 -34t-34.5 -15h-461q-20 0 -40 15t-20 34v502q0 22 12 36t37 14h54q19 0 19 18q0 20 -19 20h-54q-43 0 -64.5 -24.5t-21.5 -64.5v-496q0 -42 23.5 -67t66.5 -25h464
q44 0 67 23.5t23 68.5v497q0 38 -22.5 63t-63.5 25v0zM330 515q0 -8 6.5 -13.5t14.5 -5.5h322q9 0 15.5 5.5t6.5 13.5t-6.5 13.5t-15.5 5.5h-321q-9 0 -15.5 -5.5t-6.5 -13.5v0zM673 413h-321q-9 0 -15.5 -5.5t-6.5 -13t6.5 -13.5t15.5 -6h322q9 0 15 5.5t6 13.5t-6.5 13.5
t-15.5 5.5v0zM673 282h-321q-9 0 -15.5 -5.5t-6.5 -13.5t6.5 -13.5t15.5 -5.5h322q9 0 15 5.5t6 13.5t-6.5 13.5t-15.5 5.5v0zM438 667h150q13 0 22.5 8.5t9.5 20t-10 19.5t-23 8h-149q-13 0 -23 -8t-10 -20t10 -20t23 -8v0zM438 667z" />
    <glyph glyph-name="gouwuchekong" unicode="&#xe631;" 
d="M378 358v17l80 92q-14 -1 -24 -1h-52v18h103v-14l-68 -80l-13 -15q13 1 27 1h58v-18h-111v0v0zM563 473v20l90 103q-16 -1 -27 -1h-58v20h116v-16l-77 -90l-15 -16q17 1 31 1h65v-21h-125v0v0zM773 574v30l135 154q-24 -1 -41 -1h-86v29h173v-24l-115 -134l-22 -24
q24 1 45 1h98v-31h-187v0v0zM758 222q15 0 23 12l151 220q9 14 2 28q-10 19 -25 17q-6 -1 -19 -13q-4 -4 -12 -15t-14 -20l-6 -9l-114 -165h-463v330q0 10 -6 17.5t-16 9.5l-164 32q-11 2 -20.5 -4.5t-11.5 -17.5t4.5 -20.5t17.5 -11.5l142 -27v-111v-2.5v-2.5v-220
q0 -11 8 -19t19 -8h5v-78q-36 -27 -36 -72q0 -37 25.5 -63t61.5 -26t61.5 26t25.5 63q0 18 -7 35h224q-6 -17 -6 -35q0 -37 25.5 -63t61.5 -26t61.5 26t25.5 63t-25.5 63t-61.5 26h-2v0h-2h-378l1 61h444v0v0zM695 107q13 0 22.5 -10.5t9.5 -24.5t-9.5 -24.5t-23 -10.5
t-23 10.5t-9.5 24.5t9.5 24.5t23.5 10.5v0zM342 72q0 -14 -9.5 -24.5t-23 -10.5t-23 10.5t-9.5 24.5t9.5 24.5t23 10.5t23 -10.5t9.5 -24.5v0z" />
    <glyph glyph-name="gouwuche1" unicode="&#xe613;" 
d="M889 146h-528q-60 0 -68 46l-6 30q-85 477 -95 522q-8 33 -24 33h-108q-9 0 -15.5 6t-6.5 15t6.5 15.5t15.5 6.5h108q6 0 13 -2t17.5 -8t20 -20.5t15.5 -35.5q9 -41 96 -525l5 -30q2 -10 26 -10h528q9 0 15.5 -6.5t6.5 -15t-6.5 -15t-15.5 -6.5v0zM827 320h-535
q-8 0 -14.5 6t-6.5 15t6.5 15.5t14.5 6.5h534q17 0 29 8t14.5 13.5t3.5 9.5l9.5 35.5t20 75t22 81t16.5 58.5q4 12 0 18q-4 5 -14 8h-703q-9 0 -15 6t-6 15t6 15t15 6h705h2q30 -3 46 -26q15 -23 5 -55q-4 -13 -12 -43t-17.5 -64t-18 -66t-14 -53.5t-6.5 -21.5
q-5 -22 -27 -42.5t-60 -20.5v0zM405 -71q-37 0 -63 26.5t-26 63.5t26 63t63 26t63 -26t26 -63t-26 -63.5t-63 -26.5v0zM405 65q-19 0 -32.5 -13.5t-13.5 -33t13.5 -33t32.5 -13.5t32.5 13.5t13.5 33t-13.5 33t-32.5 13.5v0zM792 -71q-36 0 -62.5 26.5t-26.5 63.5t26 63
t63 26t63.5 -26t26.5 -63t-26.5 -63.5t-63.5 -26.5v0zM792 65q-19 0 -32.5 -13.5t-13.5 -33t13.5 -33t32.5 -13.5t33 13.5t14 33t-14 33t-33 13.5v0zM792 65z" />
    <glyph glyph-name="gerenzhongxin" unicode="&#xe637;" 
d="M932 497h-224q-12 0 -20 -8.5t-8 -20t8 -19.5t20 -8h224q11 0 19.5 8t8.5 19.5t-8.5 20t-19.5 8.5zM932 161h-168q-12 0 -20 -8.5t-8 -20t8 -19.5t20 -8h168q11 0 19.5 8t8.5 19.5t-8.5 20t-19.5 8.5zM708 609h224q11 0 19.5 8t8.5 19.5t-8.5 20t-19.5 8.5h-224
q-12 0 -20 -8.5t-8 -20t8 -19.5t20 -8zM567 375q57 77 57 178q0 115 -74 197t-178 82t-178 -82t-74 -197q0 -101 58 -178q-51 -17 -82.5 -60.5t-31.5 -97.5v-112q0 -70 49.5 -119t118.5 -49h280q70 0 119 49t49 119v112q0 54 -31.5 97.5t-81.5 60.5zM176 552.5
q0 92.5 57.5 158t138.5 65.5t138.5 -65.5t57.5 -158t-57.5 -158t-138.5 -65.5t-138.5 65.5t-57.5 158zM624 119q0 -52 -40.5 -89t-96.5 -37h-229q-57 0 -97.5 37t-40.5 89v84q0 44 30 78t76 44q66 -52 146.5 -52t145.5 52q46 -10 76 -44t30 -78v-84zM932 329h-168
q-12 0 -20 -8.5t-8 -20t8 -19.5t20 -8h168q11 0 19.5 8t8.5 19.5t-8.5 20t-19.5 8.5z" />
    <glyph glyph-name="guize" unicode="&#xe64d;" 
d="M205 205h589v77h-589v-77zM205 461h589v77h-589v-77zM922 896h-154v-77h102q16 0 21 -5.5t5 -19.5v-820q0 -17 -5 -21t-21 -4h-742q-4 0 -11.5 -1t-9 0t-3.5 7t-2 19v52.5v117.5v154v166.5v150.5v110.5t0 42.5q0 11 0.5 17t2.5 15.5t8 14t15 4.5h102v77h-153
q-29 0 -40 -11.5t-11 -39.5v-900q0 -29 20.5 -51t49.5 -22h800q29 0 53 24t24 53v896q0 28 -11.5 39.5t-39.5 11.5v0zM358 819h282v77h-282v-77z" />
    <glyph glyph-name="zhanghaobangding" unicode="&#xe733;" horiz-adv-x="1391" 
d="M636 -18q0 56 39.5 95.5t95.5 39.5h142q34 0 63 -16t48 -43q-12 48 -30 78q-22 35 -49 59t-70.5 44.5t-110 30t-158.5 9.5v0q-92 0 -158.5 -9.5t-110 -30t-70 -44.5t-48.5 -59q-14 -21 -23.5 -52.5t-14 -57t-6.5 -56t-2.5 -39t-0.5 -15.5h434v0h48q-18 31 -18 66v0z
M606 631zM343 631q0 109 77 186.5t186 77.5t186.5 -77.5t77.5 -186.5t-77.5 -186.5t-186.5 -77.5t-186 77.5t-77 186.5zM839 -84q-9 12 -24 12l-32 -1q-21 -1 -36.5 13.5t-16.5 35t12.5 35t34.5 15.5l117 2q65 2 67 -36q1 -12 9.5 -19.5t20 -7t19 8.5t7.5 19q-3 43 -37 67
t-88 23l-118 -3q-43 -1 -72.5 -32t-26.5 -74q1 -32 21 -58q6 -8 14 -15q32 -30 76 -29l32 1q11 0 19 8t7 20q-1 8 -5 15zM1218 -13q-3 45 -32 73.5t-72 27.5l-39 -1q-12 0 -19.5 -8t-7 -19.5t9 -19.5t19.5 -8l40 1q21 1 32.5 -13.5t12.5 -35t-12.5 -35t-34.5 -15.5l-75 -1
q0 2 -1 4q0 -2 -1 -4l-48 -1q-20 -1 -33 2.5t-18 11t-6.5 12t-1.5 10.5q-1 12 -9.5 19.5t-20 7.5t-19 -8.5t-7.5 -19.5q2 -30 18 -51q5 -7 10 -12q32 -29 90 -27h3l122 3q44 1 73 32t27 75z" />
    <glyph glyph-name="lajitong" unicode="&#xe68c;" 
d="M993 802h-260v12q0 28 -16.5 52t-39.5 24h-328q-24 0 -40 -24t-16 -52v-12h-261q-9 0 -15.5 -6.5t-6.5 -15.5t6.5 -15.5t15.5 -6.5h961q9 0 15.5 6.5t6.5 15.5t-6.5 15.5t-15.5 6.5zM337 814q0 32 12 32h328q12 0 12 -32v-12h-352v12zM513 80v0q-9 0 -15.5 6t-6.5 16v484
q0 9 6.5 15.5t15.5 6.5v0q9 0 15.5 -6.5t6.5 -15.5v-484q0 -10 -6.5 -16t-15.5 -6zM337 164v0q-9 0 -15.5 6.5t-6.5 15.5v315q0 9 6.5 15.5t15.5 6.5v0q9 0 15.5 -6.5t6.5 -15.5v-315q0 -9 -6.5 -15.5t-15.5 -6.5zM688 164v0q-9 0 -15.5 6.5t-6.5 15.5v315q0 9 6.5 15.5
t15.5 6.5v0q10 0 16 -6.5t6 -15.5v-315q0 -9 -6 -15.5t-16 -6.5zM887 692q-9 0 -15.5 -6.5t-6.5 -15.5v-15v-649q0 -35 -25 -59.5t-59 -24.5h-532q-37 0 -63 25.5t-26 62.5v645v15q0 9 -6 15.5t-15.5 6.5t-16 -6.5t-6.5 -15.5h0.5t0.5 -1h-1v-663q0 -53 38 -90.5t91 -37.5
h532q54 0 93 38.5t39 93.5v660q0 9 -6.5 15.5t-15.5 6.5z" />
    <glyph glyph-name="editor-zhaopian-copy" unicode="&#xe612;" 
d="M919 791h-814q-42 0 -72 -29.5t-30 -72.5v-610q0 -43 30 -72.5t72 -29.5h814q42 0 72 29.5t30 72.5v610q0 43 -30 72.5t-72 29.5zM953 305q-36 16 -77 8t-70 -37l-91 -92q-1 1 -2.5 3.5t-3.5 3.5l-288 288q-40 40 -96 40t-96 -40l-158 -158v301q0 42 29.5 71.5t72.5 29.5
h678q43 0 72.5 -29.5t29.5 -71.5v-317zM732.5 622q-49.5 0 -84 -35t-34.5 -84t34.5 -84t84 -35t84 35t34.5 84t-34.5 84t-84 35z" />
    <glyph glyph-name="qianbao" unicode="&#xe744;" 
d="M933 768h-842q-30 0 -51.5 -21.5t-21.5 -51.5v-640q0 -30 21.5 -51.5t51.5 -21.5h842q30 0 51.5 21.5t21.5 51.5v640q0 30 -21.5 51.5t-51.5 21.5zM91 55v640h842v-128h-275q-75 0 -129 -53.5t-54 -129.5t54 -129.5t129 -53.5h275v-146h-842zM933 494v-220h-275
q-45 0 -77 32.5t-32 77.5t32 77.5t77 32.5h275zM603 384q0 -23 16.5 -39t39 -16t38.5 16t16 39t-16 39t-38.5 16t-39 -16t-16.5 -39z" />
    <glyph glyph-name="gerenzhongxin1" unicode="&#xe6fe;" 
d="M777 570q0 109 -78 186.5t-187 77.5t-186.5 -77.5t-77.5 -186.5q0 -80 43 -145.5t114 -96.5q-115 -41 -187 -142t-72 -227q0 -9 9.5 -16t22.5 -7q12 0 21 7t9 16q0 69 32.5 134t81.5 110.5t106.5 73.5t108.5 28q7 0 12 3q97 14 162.5 88t65.5 174v0zM533 220q0 -9 7 -17
t16 -8h289q9 0 16 8t7 17q0 10 -7 19.5t-16 9.5h-289q-9 0 -16 -9t-7 -20v0zM845 121h-289q-9 0 -16 -8.5t-7 -18.5t7 -17.5t16 -7.5h289q9 0 16 7.5t7 17.5t-7 18.5t-16 8.5v0zM845 -8h-289q-9 0 -16 -8.5t-7 -18.5t7 -18t16 -8h289q9 0 16 8t7 18t-7 18.5t-16 8.5v0z" />
    <glyph glyph-name="icon170" unicode="&#xe6a8;" 
d="M934 250q-4 -5 -65 -70q-21 -22 -61 -62t-71 -70l-30 -29l-63 -65q-55 -56 -132 -56t-131 56q-83 64 -155 138q-32 33 -66 72.5t-51.5 62t-17.5 23.5q-55 55 -55 134t55 135q55 76 123 145q34 35 75.5 72.5t66.5 57.5l25 20q54 56 131 56t132 -56q82 -64 154 -138
q33 -33 66.5 -72t51.5 -62l18 -23q54 -56 54 -135t-54 -134v0zM898 508q-58 77 -124 144q-29 30 -64.5 62t-56.5 48l-20 17q-50 51 -120.5 51t-120.5 -51q-83 -67 -153 -138q-27 -28 -55.5 -61.5t-42.5 -52.5l-14 -19q-50 -52 -50 -124t50 -123q57 -77 123.5 -145
t141.5 -127v0q50 -51 120.5 -51t120.5 51l58 60q105 103 148 147l59 65q50 51 50 123t-50 124v0zM745 283h-141v-142q0 -17 -12 -29t-29 -12h-101q-17 0 -29 12t-12 29v142h-142q-16 0 -28 11.5t-12 28.5v101q0 17 12 29t28 12h142v142q0 16 12 28t29 12h101q17 0 29 -12
t12 -28v-142h141q17 0 29 -12t12 -29v-101q0 -17 -12 -28.5t-29 -11.5v0zM745 424h-182v183h-101v-183h-183v-101h183v-182h101v182h182v101v0zM745 424z" />
    <glyph glyph-name="iconfontshibai" unicode="&#xe69c;" 
d="M362 609l16 13l21 -1l-8 18l8 19l-21 -2l-16 13l-5 -19l-18 -11l18 -10zM653 631l15 -14l6 19l18 8l-16 13l-4 20l-17 -11l-20 4l7 -20l-9 -18zM490 655l20 5l18 -9v20l15 14l-20 7l-10 18l-12 -16l-20 -3l12 -16zM274 534l14 -14l7 19l19 10l-16 12l-3 20l-17 -12l-20 3
l5 -20l-10 -18h21zM667 141l-16 -13l-21 1l8 -18l-8 -18l21 1l16 -13l5 20l17 10l-17 10zM540 105l-20 -5l-19 10l1 -21l-15 -13l20 -7l9 -18l12 15l21 3l-12 17zM386 128l-15 15l-6 -19l-18 -9l17 -12l4 -21l16 12l20 -4l-6 20l9 18h-21zM512 817q-88 0 -168.5 -34.5
t-138.5 -92.5t-92.5 -138.5t-34.5 -168.5t34.5 -168.5t92.5 -138.5t138.5 -92.5t168.5 -34.5t168.5 34.5t138.5 92.5t92.5 138.5t34.5 168.5t-34.5 168.5t-92.5 138.5t-138.5 92.5t-168.5 34.5v0v0zM512 -22q-110 0 -203.5 54.5t-147.5 147.5t-54 203t54 203.5t147.5 147.5
t203.5 54t203.5 -54t147.5 -147.5t54 -203.5t-54 -203t-147.5 -147.5t-203.5 -54.5v0v0zM512 747q-99 0 -182.5 -48.5t-132.5 -132.5t-49 -182.5t49 -182.5t132.5 -133t182.5 -49t182.5 49t132.5 133t49 182.5t-49 182.5t-132.5 132.5t-182.5 48.5v0v0zM512 36
q-94 0 -174 46.5t-126.5 126.5t-46.5 174t46.5 174.5t126.5 127t174 46.5t174 -46.5t126.5 -127t46.5 -174.5q0 -105 -58 -192l-7 18l9 19l-21 -2l-15 14l-5 -20l-18 -11l16 -10l4 -20l17 13l20 -2q-48 -71 -124 -112.5t-165 -41.5v0v0v0zM655 558q-62 51 -143 51
t-143.5 -52t-78.5 -131l15 -3q14 75 72.5 123t134.5 48t134 -47zM512 172q-76 0 -134 48l-9 -11q62 -51 143 -51t143.5 51.5t78.5 131.5l-15 2q-14 -74 -72.5 -122.5t-134.5 -48.5v0v0zM324 404q5 1 7 -3q3 -14 4 -26l45 18l-12 29q-1 5 3 7q4 1 6 -3l12 -30l58 23q5 1 7 -3
q1 -5 -3 -7l-59 -22l12 -31q3 -7 4 -14l76 29q4 2 6 -2q2 -5 -3 -7l-75 -29q9 -10 20 -16q13 -8 33 -14q17 -5 54 -8q3 0 4 -3q1 -4 -2 -6q-1 -1 -5 -1q-32 2 -55 9q-19 6 -33 14q-9 6 -17 14v-8q-1 -21 -13 -40q-11 -21 -42 -51q-2 -1 -3 -2q-5 -1 -8 3q0 3 2 5
q28 27 40 46q12 17 14 41v13l-74 -28q-4 -2 -6 2q-1 5 3 7l75 29q-1 7 -4 14l-12 30l-48 -18q0 -19 -9 -41q-1 -3 -4 -5q-4 0 -7 3v5q8 16 9 34q2 13 -3 37q-1 4 3 6zM495 474l36 13q13 6 18 -8l41 -105q2 -5 -3 -7t-7 3l-39 100q-3 10 -12 6l-25 -9q-9 -4 -5 -13l39 -104
q2 -4 -3 -6t-6 3l-42 108q-5 14 8 19zM522 455q5 2 7 -2l25 -65q7 -19 9 -33q3 -19 -2 -34q-4 -11 -10 -21q-2 -2 -4 -3q-5 -1 -8 3q0 2 1 4q6 10 9 18q5 13 4 29q-3 17 -9 33l-25 65q-1 4 3 6zM571 359q2 1 5 0q11 -4 30 -17l1 -4q1 -3 -4 -6q-2 0 -4 1q-16 12 -28 17l-3 3
q-1 4 3 6zM580 510q5 2 8 -2q3 -13 5 -24l63 25q5 1 7 -3q1 -5 -3 -7l-15 -5q12 -30 17 -56q3 -19 1 -38q0 -4 -1 -7q3 -1 5 -3q19 -10 49 -19q2 -2 3 -4q1 -4 -2 -6q-4 -1 -6 0q-20 5 -36 13q-8 4 -15 8q-3 -10 -8 -20q-10 -18 -26 -35q-1 -1 -4 -2q-4 -1 -6 3t1 6
q15 16 24 32q6 12 9 22q-10 7 -19 15q-16 14 -36 43q-1 -14 -4 -30q-1 -3 -4 -4q-4 -1 -7 3v5q5 18 4 39q1 16 -7 45q-1 4 3 6zM595 461q20 -29 39 -46q8 -9 18 -16q3 16 0 34q-3 25 -16 57l-42 -16q0 -5 1 -10v-3z" />
    <glyph glyph-name="xiangce" unicode="&#xe65a;" 
d="M847 704h-670q-38 0 -65 -26.5t-27 -64.5v-458q0 -38 27 -64.5t65 -26.5h670q38 0 65 26.5t27 64.5v458q0 38 -27 64.5t-65 26.5zM177 636h670q10 0 17 -7t7 -16v-381l-149 138l-125 -100l-254 209l-190 -177v311q0 9 7 16t17 7zM722 529zM672 529q0 -21 14.5 -35.5
t35 -14.5t35 14.5t14.5 35.5t-14.5 35.5t-35 14.5t-35 -14.5t-14.5 -35.5z" />
    <glyph glyph-name="fenzu" unicode="&#xe6b0;" 
d="M442 347q-90 0 -153.5 63.5t-63.5 153.5t63.5 153.5t153.5 63.5t153.5 -63.5t63.5 -153.5t-63.5 -153.5t-153.5 -63.5zM442 729q-68 0 -116.5 -48.5t-48.5 -116.5t48.5 -116.5t116.5 -48.5t116.5 48.5t48.5 116.5t-48.5 116.5t-116.5 48.5zM741 6h-1q-10 0 -17 7.5
t-7 18.5v9q0 119 -79 203.5t-190.5 84.5t-191 -84.5t-79.5 -203.5q0 -6 1 -9q0 -11 -7 -18.5t-17.5 -7.5t-18 7t-7.5 17q-1 4 -1 11q0 140 94 239q44 47 101 73q60 26 125 26q66 0 125 -26q58 -26 102 -73q93 -99 93 -239v-11q0 -10 -7.5 -17t-17.5 -7zM866 56h-1
q-10 0 -17 7.5t-7 18.5v9q0 109 -60.5 191.5t-152.5 100.5q-22 4 -43 4q-10 0 -17.5 7.5t-7.5 18t7.5 17.5t17.5 7q26 0 52 -5q110 -21 182 -117.5t72 -223.5v-11q0 -10 -7.5 -17t-17.5 -7zM625 387q-32 0 -61 11q-10 3 -14.5 12.5t-1 19.5t13 14t19.5 1q21 -8 44 -8
q52 0 89.5 37t37.5 90t-37.5 90t-89.5 37q-21 0 -40 -6q-10 -3 -19 1.5t-12.5 14.5t1 19t14.5 12q27 9 56 9q73 0 125 -52t52 -125t-52 -125t-125 -52z" />
    <glyph glyph-name="chenggong" unicode="&#xe6a5;" 
d="M356 618l17 13l22 -1l-9 19l9 19l-22 -2l-17 14l-5 -20l-18 -11l18 -11zM658 641l16 -16l6 20l19 9l-18 13l-4 21l-17 -12l-21 4l7 -20l-9 -19h21zM489 665l21 6l19 -10v20l15 15l-21 7l-10 19l-12 -17l-21 -2l12 -18zM266 540l14 -15l8 20l19 10l-17 12l-2 21l-18 -12
l-21 3l6 -20l-11 -19h22zM672 133l-16 -13l-22 1l8 -19l-8 -19l22 2l16 -14l5 20l18 11l-18 11zM541 97l-21 -6l-19 10v-21l-15 -14l21 -7l9 -19l13 16l21 3l-13 17zM382 120l-15 15l-7 -19l-18 -9l17 -13l4 -21l17 12l21 -4l-7 20l9 18zM512 833q-91 0 -174 -36t-143.5 -96
t-96 -143t-35.5 -174t35.5 -174.5t96 -143.5t143.5 -95.5t174 -35.5t174 35.5t143.5 95.5t96 143.5t35.5 174.5t-35.5 174t-96 143t-143.5 96t-174 36zM512 -35q-114 0 -210.5 56t-152.5 152.5t-56 210t56 210.5t152.5 153t210.5 56t210.5 -56t152.5 -153t56 -210.5
t-56 -210t-152.5 -152.5t-210.5 -56zM512 760q-102 0 -189 -50.5t-137 -137t-50 -188.5t50 -189t137 -137.5t189 -50.5t189 50.5t137 137.5t50 189t-50 188.5t-137 137t-189 50.5zM512 24q-97 0 -180 48.5t-131 131t-48 180t48 180.5t131 131t180 48t180 -48t131 -131
t48 -180q0 -109 -60 -200l-7 20l9 19l-21 -1l-16 13l-6 -20l-19 -11l18 -11l4 -21l17 14l21 -2q-50 -73 -128.5 -116.5t-170.5 -43.5zM660 564q-64 53 -148 53t-149 -53.5t-80 -135.5l14 -3q15 77 75.5 127t139.5 50q78 0 139 -49zM512 165q-78 0 -139 50l-9 -12
q64 -53 148 -53t149 54t80 136l-14 3q-15 -77 -75.5 -127.5t-139.5 -50.5zM467 439q5 1 7 -3q1 -5 -3 -7l-70 -27q6 -13 13 -25q18 -28 39 -49q3 -4 7 -7l2 8q5 30 -1 65q-2 4 2 6q6 2 8 -2q7 -42 2 -69q-1 -9 -4 -17q7 -4 13 -9q13 -8 23 -12q5 -1 7 0q3 1 3 5q0 19 -6 38
q-2 4 2 6q6 2 8 -3q9 -26 9 -43q-1 -11 -11 -15q-5 -2 -16 2q-19 7 -35 20q-3 -9 -7 -16q-9 -19 -22 -37l-4 -2q-5 -1 -8 3q-1 3 1 5q11 14 20 31q6 10 10 24q-1 1 -2 1q-20 19 -38 45q-12 18 -25 43l-67 -26q-9 -4 -5 -13l13 -34l45 17q14 6 19 -8q8 -20 11 -36
q5 -20 2 -28q-4 -9 -14 -13q-7 -3 -19 -2q-5 0 -7 3q-2 6 3 9h3q12 0 16 1q5 2 7 7q1 4 -1 17q-2 14 -10 34q-3 8 -11 5l-40 -16l1 -2q8 -22 15 -52q4 -22 4 -41q0 -4 -4 -6q-5 -1 -7 4q-2 30 -6 47q-6 27 -13 44l-19 50q-6 15 9 21l70 27q-7 13 -13 27q-1 4 3 6q5 1 7 -2
q6 -14 13 -27zM412 450q2 1 5 0q10 -2 16 -3q7 -2 14 -5q2 -2 3 -4q1 -4 -3 -6q-4 -1 -6 0q-7 3 -13 4q-6 2 -15 3q-4 2 -4 5q-1 3 3 6zM554 477q4 2 7 -3q1 -5 -4 -7l-22 -8l38 -97q1 1 2 3q9 12 16 26q1 2 3 3q4 1 6 -3q1 -3 0 -7q-8 -16 -20 -31q-13 -17 -30 -33
q-3 -2 -4 -3q-4 0 -6 3q-2 5 2 7q14 15 23 25l-40 103l-24 -10q-5 -1 -7 3q-2 5 3 7zM579 474l32 12q-6 17 -13 34q-1 5 3 7q6 2 8 -3q7 -18 12 -34l36 14q19 8 27 -12q26 -69 32 -101q5 -20 -1 -28q-4 -9 -15 -13q-16 -6 -41 -8q-3 0 -5 3q-2 5 4 8h1q25 2 36 7q7 3 10 8
t1 14q-2 14 -10 40q-11 36 -22 66q-4 10 -15 6l-35 -14q5 -14 8 -27q5 -23 7 -46q0 -26 -6 -45q-6 -21 -18 -40q-2 -1 -5 -3q-5 0 -7 3q-2 5 2 8q10 18 16 36q5 18 6 33q0 21 -6 48q-3 14 -7 29l-31 -12q-5 0 -7 3q-1 4 3 7z" />
    <glyph glyph-name="shouhou" unicode="&#xe60a;" 
d="M904 747l-390 137l-2 5l-403 -142h-1v-482h1q4 -44 28.5 -89t60.5 -82t78.5 -71.5t84 -60.5t75.5 -45t55 -29t21 -9l21 10.5t55 30t75.5 45t84 59.5t78.5 70.5t60.5 81.5t28.5 89h1v482h-12zM873 281v0q0 -41 -20.5 -82.5t-52.5 -75.5t-70.5 -65.5t-76.5 -55.5t-69.5 -42
t-51.5 -28l-20 -10q0 -1 -20 8.5t-51.5 27t-69.5 42t-76.5 56.5t-70.5 66.5t-52.5 76t-20.5 82.5v0v435l355 125l367 -129v-431zM504 663l34 20q23 -29 43 -59l-20 -13h199v-33h-193v-40h176v-33h-176v-40h176v-33h-176v-41h204v-34h-423v-21h-40v185q-22 -26 -46 -50
q-12 18 -25 35q81 75 127 173l39 -14q-14 -27 -31 -54h166q-16 27 -34 52zM309 315h412v-175h-40v27h-332v-27h-40v175zM348 538h178v40h-176l-2 -4v-36zM348 465h178v40h-178v-40zM348 391h178v41h-178v-41zM681 280h-332v-78h332v78z" />
    <glyph glyph-name="jiageshaixuan" unicode="&#xe665;" 
d="M616 -128v0q-12 0 -21 8.5t-9 21.5v0v964q0 13 9 21.5t21 8.5t21 -9l273 -271q9 -9 9 -21t-8.5 -21t-21 -9t-21.5 9l-222 221v-893v0q0 -13 -9 -21.5t-21 -8.5v0zM408 -128q-12 0 -21 8l-273 265q-9 9 -9 22q0 12 8.5 20.5t21.5 8.5q12 0 20 -8l223 -216v881
q1 12 9.5 20.5t20.5 8.5t20.5 -8.5t9.5 -20.5v-951q0 -12 -9 -21t-21 -9z" />
    <glyph glyph-name="liebiao-on" unicode="&#xe618;" 
d="M218 667h-41q-19 0 -33 -13.5t-14 -33.5v-40q0 -20 14 -33.5t33 -13.5h41q19 0 33 13.5t14 33.5v40q0 20 -14 33.5t-33 13.5zM232 580q0 -6 -4.5 -10t-9.5 -4h-41q-5 0 -9 4t-4 10v40q0 6 4 10t9 4h41q5 0 9.5 -4t4.5 -10v-40zM873 667h-486q-24 0 -40.5 -16.5
t-16.5 -40.5v-20q0 -24 16.5 -40.5t40.5 -16.5h486q24 0 40.5 16.5t16.5 40.5v20q0 24 -16.5 40.5t-40.5 16.5zM897 590q0 -10 -7 -17t-17 -7h-486q-10 0 -17 7t-7 17v20q0 10 7 17t17 7h486q10 0 17 -7t7 -17v-20zM218 450h-41q-19 0 -33 -14t-14 -33v-41q0 -19 14 -33
t33 -14h41q19 0 33 14t14 33v41q0 19 -14 33t-33 14zM232 362q0 -5 -4.5 -9t-9.5 -4h-41q-5 0 -9 4t-4 9v41q0 6 4 10t9 4h41q5 0 9.5 -4t4.5 -10v-41zM873 450h-486q-24 0 -40.5 -16.5t-16.5 -40.5v-20q0 -24 16.5 -41t40.5 -17h486q24 0 40.5 17t16.5 41v20
q0 24 -16.5 40.5t-40.5 16.5zM897 373q0 -10 -7 -17t-17 -7h-486q-10 0 -17 7t-7 17v20q0 10 7 17t17 7h486q10 0 17 -7t7 -17v-20zM218 233h-41q-19 0 -33 -14t-14 -33v-41q0 -19 14 -33t33 -14h41q19 0 33 14t14 33v41q0 19 -14 33t-33 14zM232 145q0 -5 -4.5 -9t-9.5 -4
h-41q-5 0 -9 4t-4 9v41q0 5 4 9t9 4h41q5 0 9.5 -4t4.5 -9v-41zM873 233h-486q-24 0 -40.5 -17t-16.5 -40v-21q0 -23 16.5 -40t40.5 -17h486q24 0 40.5 17t16.5 40v21q0 23 -16.5 40t-40.5 17zM897 155q0 -9 -7 -16t-17 -7h-486q-10 0 -17 7t-7 16v21q0 10 7 17t17 7h486
q10 0 17 -7t7 -17v-21z" />
    <glyph glyph-name="baoshuicang" unicode="&#xe667;" 
d="M512 -32q-172 0 -294 122t-122 294t122 294t294 122t294 -122t122 -294t-122 -294t-294 -122zM512 768q-159 0 -271.5 -112.5t-112.5 -271.5t112.5 -271.5t271.5 -112.5t271.5 112.5t112.5 271.5t-112.5 271.5t-271.5 112.5zM718 430l-14 14v-300q0 -7 -4.5 -11.5
t-11.5 -4.5t-11.5 4.5t-4.5 11.5v332l-159 160l-161 -161v-331q0 -7 -4.5 -11.5t-11.5 -4.5t-11.5 4.5t-4.5 11.5v299l-14 -13q-11 -12 -22.5 -0.5t0.5 22.5l215 215q5 5 12 5q8 2 15 -4l215 -215q11 -11 -0.5 -22.5t-22.5 -0.5zM432 384h160q7 0 11.5 -4.5t4.5 -11.5
t-4.5 -11.5t-11.5 -4.5h-160q-7 0 -11.5 4.5t-4.5 11.5t4.5 11.5t11.5 4.5zM432 288h160q7 0 11.5 -4.5t4.5 -11.5t-4.5 -11.5t-11.5 -4.5h-160q-7 0 -11.5 4.5t-4.5 11.5t4.5 11.5t11.5 4.5zM432 192h160q7 0 11.5 -4.5t4.5 -11.5t-4.5 -11.5t-11.5 -4.5h-160
q-7 0 -11.5 4.5t-4.5 11.5t4.5 11.5t11.5 4.5z" />
    <glyph glyph-name="biyan" unicode="&#xe60f;" 
d="M664 148q-18 0 -24 17l-46 143q-40 -8 -82 -8q-41 0 -83 8l-45 -143q-6 -17 -24 -17q-4 0 -8 1q-9 3 -14 12.5t-2 18.5l46 141q-69 21 -133 65q-5 3 -13 8l-104 -66q-6 -4 -13 -4q-14 0 -21 12q-5 9 -3 19t11 15l90 57q-77 64 -121 146l-7 12l-2 5q-3 2 -3 9q1 10 8.5 17
t17.5 7q17 0 27 -17l2 -4q3 -4 3 -6q54 -98 162.5 -171t228.5 -73q121 0 229.5 73.5t161.5 172.5l5 8q10 17 26 17q10 0 17.5 -6.5t8.5 -15.5q1 -7 -2 -12l-9 -17q-43 -80 -121 -146l90 -56q9 -5 11 -15t-3 -19q-7 -12 -21 -12q-7 0 -13 4l-105 66l-12 -8q-65 -44 -133 -66
l45 -140q4 -10 -1 -19t-15 -12q-3 -1 -7 -1z" />
    <glyph glyph-name="icon-yxj-unhappy" unicode="&#xe625;" 
d="M512 -128q-104 0 -198.5 40.5t-163.5 109.5t-109.5 163.5t-40.5 198.5t40.5 198.5t109.5 163.5t163.5 109.5t198.5 40.5t198.5 -40.5t163.5 -109.5t109.5 -163.5t40.5 -198.5t-40.5 -198.5t-109.5 -163.5t-163.5 -109.5t-198.5 -40.5zM512 828q-90 0 -172.5 -35
t-142 -94.5t-94.5 -142t-35 -172.5t35 -172.5t94.5 -142t142 -94.5t172.5 -35t172.5 35t142 94.5t94.5 142t35 172.5t-35 172.5t-94.5 142t-142 94.5t-172.5 35zM688 164q-13 0 -20 11q-26 40 -67.5 62.5t-88.5 22.5t-88.5 -22.5t-67.5 -62.5q-6 -9 -15.5 -11t-18 3.5
t-10.5 15t3 18.5q33 50 85 78t111 28q60 0 112 -28t85 -78q5 -9 3 -18.5t-11 -15.5q-6 -3 -12 -3zM685 577q-27 0 -46 -19.5t-19 -46t19 -46t46 -19.5t46 19.5t19 46t-19 46t-46 19.5zM342.5 577q-26.5 0 -45.5 -19.5t-19 -46t19 -46t45.5 -19.5t46 19.5t19.5 46t-19.5 46
t-46 19.5z" />
    <glyph glyph-name="queding" unicode="&#xe632;" 
d="M580 828q-121 19 -232 -24.5t-185.5 -136.5t-93 -214t25 -232t136.5 -185.5t214 -93t232 25t185.5 136.5t92.5 214t-25 232t-136 185.5t-214 92.5zM715 515q-246 -314 -252 -314q-9 -9 -20.5 -6.5t-16.5 12.5l-111 135q-8 10 -5.5 21.5t12.5 15.5q9 9 20.5 6.5
t15.5 -12.5l87 -104l227 276q5 10 16.5 12.5t20.5 -5.5q10 -5 12.5 -16.5t-6.5 -20.5z" />
  </font>
</defs>
</svg>
